<?xml version="1.0" encoding="us-ascii" standalone="no"?><svg xmlns="http://www.w3.org/2000/svg" xmlns:xlink="http://www.w3.org/1999/xlink" contentStyleType="text/css" height="807px" preserveAspectRatio="none" style="width:815px;height:807px;background:#FFFFFF;" version="1.1" viewBox="0 0 815 807" width="815px" zoomAndPan="magnify"><defs/><g><!--class Asset--><g id="elem_Asset"><rect codeLine="2" fill="#F1F1F1" height="113.9531" id="Asset" rx="2.5" ry="2.5" style="stroke:#181818;stroke-width:0.5;" width="407" x="97" y="164.47"/><ellipse cx="277.75" cy="180.47" fill="#B4A7E5" rx="11" ry="11" style="stroke:#181818;stroke-width:1.0;"/><path d="M274.1777,176.7351 L274.1777,174.5769 L281.5571,174.5769 L281.5571,176.7351 L279.0918,176.7351 L279.0918,184.8118 L281.5571,184.8118 L281.5571,186.97 L274.1777,186.97 L274.1777,184.8118 L276.6431,184.8118 L276.6431,176.7351 Z " fill="#000000"/><text fill="#000000" font-family="sans-serif" font-size="14" font-style="italic" lengthAdjust="spacing" textLength="37" x="298.25" y="185.761">Asset</text><line style="stroke:#181818;stroke-width:0.5;" x1="98" x2="503" y1="196.47" y2="196.47"/><line style="stroke:#181818;stroke-width:0.5;" x1="98" x2="503" y1="204.47" y2="204.47"/><ellipse cx="108" cy="218.2141" fill="#84BE84" rx="3" ry="3" style="stroke:#038048;stroke-width:1.0;"/><text fill="#000000" font-family="sans-serif" font-size="14" lengthAdjust="spacing" textLength="381" x="117" y="222.0052">Execute(input map[string]interface{}) (interface{}, error)</text><ellipse cx="108" cy="234.7024" fill="#84BE84" rx="3" ry="3" style="stroke:#038048;stroke-width:1.0;"/><text fill="#000000" font-family="sans-serif" font-size="14" lengthAdjust="spacing" textLength="160" x="117" y="238.4934">GetUpstreams() []string</text><ellipse cx="108" cy="251.1907" fill="#84BE84" rx="3" ry="3" style="stroke:#038048;stroke-width:1.0;"/><text fill="#000000" font-family="sans-serif" font-size="14" lengthAdjust="spacing" textLength="180" x="117" y="254.9817">GetDownstreams() []string</text><ellipse cx="108" cy="267.679" fill="#84BE84" rx="3" ry="3" style="stroke:#038048;stroke-width:1.0;"/><text fill="#000000" font-family="sans-serif" font-size="14" lengthAdjust="spacing" textLength="116" x="117" y="271.47">GetName() string</text></g><!--class SQLModelAsset--><g id="elem_SQLModelAsset"><rect codeLine="9" fill="#F1F1F1" height="48" id="SQLModelAsset" rx="2.5" ry="2.5" style="stroke:#181818;stroke-width:0.5;" width="137" x="83" y="338.42"/><ellipse cx="98" cy="354.42" fill="#ADD1B2" rx="11" ry="11" style="stroke:#181818;stroke-width:1.0;"/><path d="M100.4731,360.5631 Q99.8921,360.8619 99.2529,361.0113 Q98.6138,361.1607 97.9082,361.1607 Q95.4014,361.1607 94.0815,359.5089 Q92.7617,357.857 92.7617,354.7359 Q92.7617,351.6065 94.0815,349.9547 Q95.4014,348.3028 97.9082,348.3028 Q98.6138,348.3028 99.2612,348.4522 Q99.9087,348.6016 100.4731,348.9005 L100.4731,351.6231 Q99.8423,351.0421 99.2488,350.7723 Q98.6553,350.5025 98.0244,350.5025 Q96.6797,350.5025 95.9949,351.5692 Q95.3101,352.6358 95.3101,354.7359 Q95.3101,356.8277 95.9949,357.8944 Q96.6797,358.961 98.0244,358.961 Q98.6553,358.961 99.2488,358.6912 Q99.8423,358.4215 100.4731,357.8404 Z " fill="#000000"/><text fill="#000000" font-family="sans-serif" font-size="14" lengthAdjust="spacing" textLength="105" x="112" y="359.711">SQLModelAsset</text><line style="stroke:#181818;stroke-width:0.5;" x1="84" x2="219" y1="370.42" y2="370.42"/><line style="stroke:#181818;stroke-width:0.5;" x1="84" x2="219" y1="378.42" y2="378.42"/></g><!--class DBDriver--><g id="elem_DBDriver"><rect codeLine="10" fill="#F1F1F1" height="245.8594" id="DBDriver" rx="2.5" ry="2.5" style="stroke:#181818;stroke-width:0.5;" width="437" x="213" y="446.42"/><ellipse cx="397.75" cy="462.42" fill="#B4A7E5" rx="11" ry="11" style="stroke:#181818;stroke-width:1.0;"/><path d="M394.1777,458.6851 L394.1777,456.5269 L401.5571,456.5269 L401.5571,458.6851 L399.0918,458.6851 L399.0918,466.7618 L401.5571,466.7618 L401.5571,468.92 L394.1777,468.92 L394.1777,466.7618 L396.6431,466.7618 L396.6431,458.6851 Z " fill="#000000"/><text fill="#000000" font-family="sans-serif" font-size="14" font-style="italic" lengthAdjust="spacing" textLength="59" x="418.25" y="467.711">DBDriver</text><line style="stroke:#181818;stroke-width:0.5;" x1="214" x2="649" y1="478.42" y2="478.42"/><line style="stroke:#181818;stroke-width:0.5;" x1="214" x2="649" y1="486.42" y2="486.42"/><ellipse cx="224" cy="500.1641" fill="#84BE84" rx="3" ry="3" style="stroke:#038048;stroke-width:1.0;"/><text fill="#000000" font-family="sans-serif" font-size="14" lengthAdjust="spacing" textLength="106" x="233" y="503.9552">Connect() error</text><ellipse cx="224" cy="516.6524" fill="#84BE84" rx="3" ry="3" style="stroke:#038048;stroke-width:1.0;"/><text fill="#000000" font-family="sans-serif" font-size="14" lengthAdjust="spacing" textLength="175" x="233" y="520.4434">Begin() (interface{}, error)</text><ellipse cx="224" cy="533.1407" fill="#84BE84" rx="3" ry="3" style="stroke:#038048;stroke-width:1.0;"/><text fill="#000000" font-family="sans-serif" font-size="14" lengthAdjust="spacing" textLength="191" x="233" y="536.9317">Commit(tx interface{}) error</text><ellipse cx="224" cy="549.629" fill="#84BE84" rx="3" ry="3" style="stroke:#038048;stroke-width:1.0;"/><text fill="#000000" font-family="sans-serif" font-size="14" lengthAdjust="spacing" textLength="194" x="233" y="553.42">Rallback(tx interface{}) error</text><ellipse cx="224" cy="566.1173" fill="#84BE84" rx="3" ry="3" style="stroke:#038048;stroke-width:1.0;"/><text fill="#000000" font-family="sans-serif" font-size="14" lengthAdjust="spacing" textLength="87" x="233" y="569.9083">Close() error</text><ellipse cx="224" cy="582.6055" fill="#84BE84" rx="3" ry="3" style="stroke:#038048;stroke-width:1.0;"/><text fill="#000000" font-family="sans-serif" font-size="14" lengthAdjust="spacing" textLength="241" x="233" y="586.3966">Exec(tx interface{}, sql string) error</text><ellipse cx="224" cy="599.0938" fill="#84BE84" rx="3" ry="3" style="stroke:#038048;stroke-width:1.0;"/><text fill="#000000" font-family="sans-serif" font-size="14" lengthAdjust="spacing" textLength="379" x="233" y="602.8848">GetListOfFields(tx interface{}, tableName string) []string</text><ellipse cx="224" cy="615.5821" fill="#84BE84" rx="3" ry="3" style="stroke:#038048;stroke-width:1.0;"/><text fill="#000000" font-family="sans-serif" font-size="14" lengthAdjust="spacing" textLength="378" x="233" y="619.3731">CheckTableExists(tx interface{}, tableName string) bool</text><ellipse cx="224" cy="632.0704" fill="#84BE84" rx="3" ry="3" style="stroke:#038048;stroke-width:1.0;"/><text fill="#000000" font-family="sans-serif" font-size="14" lengthAdjust="spacing" textLength="411" x="233" y="635.8614">CheckSchemaExists(tx interface{}, schemaName string) bool</text><ellipse cx="224" cy="648.5587" fill="#84BE84" rx="3" ry="3" style="stroke:#038048;stroke-width:1.0;"/><text fill="#000000" font-family="sans-serif" font-size="14" lengthAdjust="spacing" textLength="130" x="233" y="652.3497">IsPermanent() bool</text><ellipse cx="224" cy="665.047" fill="#84BE84" rx="3" ry="3" style="stroke:#038048;stroke-width:1.0;"/><text fill="#000000" font-family="sans-serif" font-size="14" lengthAdjust="spacing" textLength="386" x="233" y="668.838">MountSource(sourceProfile *configs.SourceProfile) error</text><ellipse cx="224" cy="681.5352" fill="#84BE84" rx="3" ry="3" style="stroke:#038048;stroke-width:1.0;"/><text fill="#000000" font-family="sans-serif" font-size="14" lengthAdjust="spacing" textLength="405" x="233" y="685.3263">UnMountSource(sourceProfile *configs.SourceProfile) error</text></g><!--class DuckDB--><g id="elem_DuckDB"><rect codeLine="25" fill="#F1F1F1" height="48" id="DuckDB" rx="2.5" ry="2.5" style="stroke:#181818;stroke-width:0.5;" width="84" x="183.5" y="752.28"/><ellipse cx="198.5" cy="768.28" fill="#ADD1B2" rx="11" ry="11" style="stroke:#181818;stroke-width:1.0;"/><path d="M200.9731,774.4231 Q200.3921,774.7219 199.7529,774.8713 Q199.1138,775.0207 198.4082,775.0207 Q195.9014,775.0207 194.5815,773.3689 Q193.2617,771.717 193.2617,768.5959 Q193.2617,765.4665 194.5815,763.8147 Q195.9014,762.1628 198.4082,762.1628 Q199.1138,762.1628 199.7612,762.3122 Q200.4087,762.4616 200.9731,762.7605 L200.9731,765.4831 Q200.3423,764.9021 199.7488,764.6323 Q199.1553,764.3625 198.5244,764.3625 Q197.1797,764.3625 196.4949,765.4292 Q195.8101,766.4958 195.8101,768.5959 Q195.8101,770.6877 196.4949,771.7544 Q197.1797,772.821 198.5244,772.821 Q199.1553,772.821 199.7488,772.5512 Q200.3423,772.2815 200.9731,771.7004 Z " fill="#000000"/><text fill="#000000" font-family="sans-serif" font-size="14" lengthAdjust="spacing" textLength="52" x="212.5" y="773.571">DuckDB</text><line style="stroke:#181818;stroke-width:0.5;" x1="184.5" x2="266.5" y1="784.28" y2="784.28"/><line style="stroke:#181818;stroke-width:0.5;" x1="184.5" x2="266.5" y1="792.28" y2="792.28"/></g><!--class PossgreSQL--><g id="elem_PossgreSQL"><rect codeLine="26" fill="#F1F1F1" height="48" id="PossgreSQL" rx="2.5" ry="2.5" style="stroke:#181818;stroke-width:0.5;" width="112" x="302.5" y="752.28"/><ellipse cx="317.5" cy="768.28" fill="#ADD1B2" rx="11" ry="11" style="stroke:#181818;stroke-width:1.0;"/><path d="M319.9731,774.4231 Q319.3921,774.7219 318.7529,774.8713 Q318.1138,775.0207 317.4082,775.0207 Q314.9014,775.0207 313.5815,773.3689 Q312.2617,771.717 312.2617,768.5959 Q312.2617,765.4665 313.5815,763.8147 Q314.9014,762.1628 317.4082,762.1628 Q318.1138,762.1628 318.7612,762.3122 Q319.4087,762.4616 319.9731,762.7605 L319.9731,765.4831 Q319.3423,764.9021 318.7488,764.6323 Q318.1553,764.3625 317.5244,764.3625 Q316.1797,764.3625 315.4949,765.4292 Q314.8101,766.4958 314.8101,768.5959 Q314.8101,770.6877 315.4949,771.7544 Q316.1797,772.821 317.5244,772.821 Q318.1553,772.821 318.7488,772.5512 Q319.3423,772.2815 319.9731,771.7004 Z " fill="#000000"/><text fill="#000000" font-family="sans-serif" font-size="14" lengthAdjust="spacing" textLength="80" x="331.5" y="773.571">PossgreSQL</text><line style="stroke:#181818;stroke-width:0.5;" x1="303.5" x2="413.5" y1="784.28" y2="784.28"/><line style="stroke:#181818;stroke-width:0.5;" x1="303.5" x2="413.5" y1="792.28" y2="792.28"/></g><!--class ClickHouse--><g id="elem_ClickHouse"><rect codeLine="27" fill="#F1F1F1" height="48" id="ClickHouse" rx="2.5" ry="2.5" style="stroke:#181818;stroke-width:0.5;" width="108" x="449.5" y="752.28"/><ellipse cx="464.5" cy="768.28" fill="#ADD1B2" rx="11" ry="11" style="stroke:#181818;stroke-width:1.0;"/><path d="M466.9731,774.4231 Q466.3921,774.7219 465.7529,774.8713 Q465.1138,775.0207 464.4082,775.0207 Q461.9014,775.0207 460.5815,773.3689 Q459.2617,771.717 459.2617,768.5959 Q459.2617,765.4665 460.5815,763.8147 Q461.9014,762.1628 464.4082,762.1628 Q465.1138,762.1628 465.7612,762.3122 Q466.4087,762.4616 466.9731,762.7605 L466.9731,765.4831 Q466.3423,764.9021 465.7488,764.6323 Q465.1553,764.3625 464.5244,764.3625 Q463.1797,764.3625 462.4949,765.4292 Q461.8101,766.4958 461.8101,768.5959 Q461.8101,770.6877 462.4949,771.7544 Q463.1797,772.821 464.5244,772.821 Q465.1553,772.821 465.7488,772.5512 Q466.3423,772.2815 466.9731,771.7004 Z " fill="#000000"/><text fill="#000000" font-family="sans-serif" font-size="14" lengthAdjust="spacing" textLength="76" x="478.5" y="773.571">ClickHouse</text><line style="stroke:#181818;stroke-width:0.5;" x1="450.5" x2="556.5" y1="784.28" y2="784.28"/><line style="stroke:#181818;stroke-width:0.5;" x1="450.5" x2="556.5" y1="792.28" y2="792.28"/></g><!--class MySQL--><g id="elem_MySQL"><rect codeLine="28" fill="#F1F1F1" height="48" id="MySQL" rx="2.5" ry="2.5" style="stroke:#181818;stroke-width:0.5;" width="77" x="592" y="752.28"/><ellipse cx="607" cy="768.28" fill="#ADD1B2" rx="11" ry="11" style="stroke:#181818;stroke-width:1.0;"/><path d="M609.4731,774.4231 Q608.8921,774.7219 608.2529,774.8713 Q607.6138,775.0207 606.9082,775.0207 Q604.4014,775.0207 603.0815,773.3689 Q601.7617,771.717 601.7617,768.5959 Q601.7617,765.4665 603.0815,763.8147 Q604.4014,762.1628 606.9082,762.1628 Q607.6138,762.1628 608.2612,762.3122 Q608.9087,762.4616 609.4731,762.7605 L609.4731,765.4831 Q608.8423,764.9021 608.2488,764.6323 Q607.6553,764.3625 607.0244,764.3625 Q605.6797,764.3625 604.9949,765.4292 Q604.3101,766.4958 604.3101,768.5959 Q604.3101,770.6877 604.9949,771.7544 Q605.6797,772.821 607.0244,772.821 Q607.6553,772.821 608.2488,772.5512 Q608.8423,772.2815 609.4731,771.7004 Z " fill="#000000"/><text fill="#000000" font-family="sans-serif" font-size="14" lengthAdjust="spacing" textLength="45" x="621" y="773.571">MySQL</text><line style="stroke:#181818;stroke-width:0.5;" x1="593" x2="668" y1="784.28" y2="784.28"/><line style="stroke:#181818;stroke-width:0.5;" x1="593" x2="668" y1="792.28" y2="792.28"/></g><!--class SQLModelDescriptor--><g id="elem_SQLModelDescriptor"><rect codeLine="29" fill="#F1F1F1" height="48" id="SQLModelDescriptor" rx="2.5" ry="2.5" style="stroke:#181818;stroke-width:0.5;" width="171" x="7" y="545.35"/><ellipse cx="22" cy="561.35" fill="#ADD1B2" rx="11" ry="11" style="stroke:#181818;stroke-width:1.0;"/><path d="M24.4731,567.4931 Q23.8921,567.7919 23.2529,567.9413 Q22.6138,568.0907 21.9082,568.0907 Q19.4014,568.0907 18.0815,566.4389 Q16.7617,564.787 16.7617,561.6659 Q16.7617,558.5365 18.0815,556.8847 Q19.4014,555.2328 21.9082,555.2328 Q22.6138,555.2328 23.2612,555.3822 Q23.9087,555.5316 24.4731,555.8305 L24.4731,558.5531 Q23.8423,557.9721 23.2488,557.7023 Q22.6553,557.4325 22.0244,557.4325 Q20.6797,557.4325 19.9949,558.4992 Q19.3101,559.5658 19.3101,561.6659 Q19.3101,563.7577 19.9949,564.8244 Q20.6797,565.891 22.0244,565.891 Q22.6553,565.891 23.2488,565.6212 Q23.8423,565.3515 24.4731,564.7704 Z " fill="#000000"/><text fill="#000000" font-family="sans-serif" font-size="14" lengthAdjust="spacing" textLength="139" x="36" y="566.641">SQLModelDescriptor</text><line style="stroke:#181818;stroke-width:0.5;" x1="8" x2="177" y1="577.35" y2="577.35"/><line style="stroke:#181818;stroke-width:0.5;" x1="8" x2="177" y1="585.35" y2="585.35"/></g><!--class DAG--><g id="elem_DAG"><rect codeLine="30" fill="#F1F1F1" height="97.4648" id="DAG" rx="2.5" ry="2.5" style="stroke:#181818;stroke-width:0.5;" width="180" x="628.5" y="7"/><ellipse cx="699.25" cy="23" fill="#B4A7E5" rx="11" ry="11" style="stroke:#181818;stroke-width:1.0;"/><path d="M695.6777,19.2651 L695.6777,17.1069 L703.0571,17.1069 L703.0571,19.2651 L700.5918,19.2651 L700.5918,27.3418 L703.0571,27.3418 L703.0571,29.5 L695.6777,29.5 L695.6777,27.3418 L698.1431,27.3418 L698.1431,19.2651 Z " fill="#000000"/><text fill="#000000" font-family="sans-serif" font-size="14" font-style="italic" lengthAdjust="spacing" textLength="30" x="719.75" y="28.291">DAG</text><line style="stroke:#181818;stroke-width:0.5;" x1="629.5" x2="807.5" y1="39" y2="39"/><line style="stroke:#181818;stroke-width:0.5;" x1="629.5" x2="807.5" y1="47" y2="47"/><ellipse cx="639.5" cy="60.7441" fill="#84BE84" rx="3" ry="3" style="stroke:#038048;stroke-width:1.0;"/><text fill="#000000" font-family="sans-serif" font-size="14" lengthAdjust="spacing" textLength="154" x="648.5" y="64.5352">Run() *sync.WaitGroup</text><ellipse cx="639.5" cy="77.2324" fill="#84BE84" rx="3" ry="3" style="stroke:#038048;stroke-width:1.0;"/><text fill="#000000" font-family="sans-serif" font-size="14" lengthAdjust="spacing" textLength="55" x="648.5" y="81.0234">Push(...)</text><ellipse cx="639.5" cy="93.7207" fill="#84BE84" rx="3" ry="3" style="stroke:#038048;stroke-width:1.0;"/><text fill="#000000" font-family="sans-serif" font-size="14" lengthAdjust="spacing" textLength="41" x="648.5" y="97.5117">Stop()</text></g><!--class Routine--><g id="elem_Routine"><rect codeLine="36" fill="#F1F1F1" height="48" id="Routine" rx="2.5" ry="2.5" style="stroke:#181818;stroke-width:0.5;" width="85" x="539" y="197.44"/><ellipse cx="554" cy="213.44" fill="#ADD1B2" rx="11" ry="11" style="stroke:#181818;stroke-width:1.0;"/><path d="M556.4731,219.5831 Q555.8921,219.8819 555.2529,220.0313 Q554.6138,220.1807 553.9082,220.1807 Q551.4014,220.1807 550.0815,218.5289 Q548.7617,216.877 548.7617,213.7559 Q548.7617,210.6265 550.0815,208.9747 Q551.4014,207.3228 553.9082,207.3228 Q554.6138,207.3228 555.2612,207.4722 Q555.9087,207.6216 556.4731,207.9205 L556.4731,210.6431 Q555.8423,210.0621 555.2488,209.7923 Q554.6553,209.5225 554.0244,209.5225 Q552.6797,209.5225 551.9949,210.5892 Q551.3101,211.6558 551.3101,213.7559 Q551.3101,215.8477 551.9949,216.9144 Q552.6797,217.981 554.0244,217.981 Q554.6553,217.981 555.2488,217.7112 Q555.8423,217.4415 556.4731,216.8604 Z " fill="#000000"/><text fill="#000000" font-family="sans-serif" font-size="14" lengthAdjust="spacing" textLength="53" x="568" y="218.731">Routine</text><line style="stroke:#181818;stroke-width:0.5;" x1="540" x2="623" y1="229.44" y2="229.44"/><line style="stroke:#181818;stroke-width:0.5;" x1="540" x2="623" y1="237.44" y2="237.44"/></g><!--class GOAsset--><g id="elem_GOAsset"><rect fill="#F1F1F1" height="48" id="GOAsset" rx="2.5" ry="2.5" style="stroke:#181818;stroke-width:0.5;" width="90" x="255.5" y="338.42"/><ellipse cx="270.5" cy="354.42" fill="#ADD1B2" rx="11" ry="11" style="stroke:#181818;stroke-width:1.0;"/><path d="M272.9731,360.5631 Q272.3921,360.8619 271.7529,361.0113 Q271.1138,361.1607 270.4082,361.1607 Q267.9014,361.1607 266.5815,359.5089 Q265.2617,357.857 265.2617,354.7359 Q265.2617,351.6065 266.5815,349.9547 Q267.9014,348.3028 270.4082,348.3028 Q271.1138,348.3028 271.7612,348.4522 Q272.4087,348.6016 272.9731,348.9005 L272.9731,351.6231 Q272.3423,351.0421 271.7488,350.7723 Q271.1553,350.5025 270.5244,350.5025 Q269.1797,350.5025 268.4949,351.5692 Q267.8101,352.6358 267.8101,354.7359 Q267.8101,356.8277 268.4949,357.8944 Q269.1797,358.961 270.5244,358.961 Q271.1553,358.961 271.7488,358.6912 Q272.3423,358.4215 272.9731,357.8404 Z " fill="#000000"/><text fill="#000000" font-family="sans-serif" font-size="14" lengthAdjust="spacing" textLength="58" x="284.5" y="359.711">GOAsset</text><line style="stroke:#181818;stroke-width:0.5;" x1="256.5" x2="344.5" y1="370.42" y2="370.42"/><line style="stroke:#181818;stroke-width:0.5;" x1="256.5" x2="344.5" y1="378.42" y2="378.42"/></g><!--class SeedAsset--><g id="elem_SeedAsset"><rect fill="#F1F1F1" height="48" id="SeedAsset" rx="2.5" ry="2.5" style="stroke:#181818;stroke-width:0.5;" width="102" x="380.5" y="338.42"/><ellipse cx="395.5" cy="354.42" fill="#ADD1B2" rx="11" ry="11" style="stroke:#181818;stroke-width:1.0;"/><path d="M397.9731,360.5631 Q397.3921,360.8619 396.7529,361.0113 Q396.1138,361.1607 395.4082,361.1607 Q392.9014,361.1607 391.5815,359.5089 Q390.2617,357.857 390.2617,354.7359 Q390.2617,351.6065 391.5815,349.9547 Q392.9014,348.3028 395.4082,348.3028 Q396.1138,348.3028 396.7612,348.4522 Q397.4087,348.6016 397.9731,348.9005 L397.9731,351.6231 Q397.3423,351.0421 396.7488,350.7723 Q396.1553,350.5025 395.5244,350.5025 Q394.1797,350.5025 393.4949,351.5692 Q392.8101,352.6358 392.8101,354.7359 Q392.8101,356.8277 393.4949,357.8944 Q394.1797,358.961 395.5244,358.961 Q396.1553,358.961 396.7488,358.6912 Q397.3423,358.4215 397.9731,357.8404 Z " fill="#000000"/><text fill="#000000" font-family="sans-serif" font-size="14" lengthAdjust="spacing" textLength="70" x="409.5" y="359.711">SeedAsset</text><line style="stroke:#181818;stroke-width:0.5;" x1="381.5" x2="481.5" y1="370.42" y2="370.42"/><line style="stroke:#181818;stroke-width:0.5;" x1="381.5" x2="481.5" y1="378.42" y2="378.42"/></g><!--class ChannelDAG--><g id="elem_ChannelDAG"><rect fill="#F1F1F1" height="48" id="ChannelDAG" rx="2.5" ry="2.5" style="stroke:#181818;stroke-width:0.5;" width="119" x="659" y="197.44"/><ellipse cx="674" cy="213.44" fill="#ADD1B2" rx="11" ry="11" style="stroke:#181818;stroke-width:1.0;"/><path d="M676.4731,219.5831 Q675.8921,219.8819 675.2529,220.0313 Q674.6138,220.1807 673.9082,220.1807 Q671.4014,220.1807 670.0815,218.5289 Q668.7617,216.877 668.7617,213.7559 Q668.7617,210.6265 670.0815,208.9747 Q671.4014,207.3228 673.9082,207.3228 Q674.6138,207.3228 675.2612,207.4722 Q675.9087,207.6216 676.4731,207.9205 L676.4731,210.6431 Q675.8423,210.0621 675.2488,209.7923 Q674.6553,209.5225 674.0244,209.5225 Q672.6797,209.5225 671.9949,210.5892 Q671.3101,211.6558 671.3101,213.7559 Q671.3101,215.8477 671.9949,216.9144 Q672.6797,217.981 674.0244,217.981 Q674.6553,217.981 675.2488,217.7112 Q675.8423,217.4415 676.4731,216.8604 Z " fill="#000000"/><text fill="#000000" font-family="sans-serif" font-size="14" lengthAdjust="spacing" textLength="87" x="688" y="218.731">ChannelDAG</text><line style="stroke:#181818;stroke-width:0.5;" x1="660" x2="777" y1="229.44" y2="229.44"/><line style="stroke:#181818;stroke-width:0.5;" x1="660" x2="777" y1="237.44" y2="237.44"/></g><!--reverse link Asset to SQLModelAsset--><g id="link_Asset_SQLModelAsset"><path codeLine="38" d="M227.1641,290.8444 C204.8641,311.6344 193.96,321.81 176.51,338.09 " fill="none" id="Asset-backto-SQLModelAsset" style="stroke:#181818;stroke-width:1.0;stroke-dasharray:7.0,7.0;"/><polygon fill="none" points="240.33,278.57,223.0727,286.4557,231.2556,295.233,240.33,278.57" style="stroke:#181818;stroke-width:1.0;"/></g><!--reverse link Asset to GOAsset--><g id="link_Asset_GOAsset"><path codeLine="39" d="M300.5,296.57 C300.5,317.36 300.5,321.81 300.5,338.09 " fill="none" id="Asset-backto-GOAsset" style="stroke:#181818;stroke-width:1.0;stroke-dasharray:7.0,7.0;"/><polygon fill="none" points="300.5,278.57,294.5,296.57,306.5,296.57,300.5,278.57" style="stroke:#181818;stroke-width:1.0;"/></g><!--reverse link Asset to SeedAsset--><g id="link_Asset_SeedAsset"><path codeLine="40" d="M365.7542,291.6704 C385.3442,312.4604 394.17,321.81 409.51,338.09 " fill="none" id="Asset-backto-SeedAsset" style="stroke:#181818;stroke-width:1.0;stroke-dasharray:7.0,7.0;"/><polygon fill="none" points="353.41,278.57,361.3874,295.7851,370.121,287.5556,353.41,278.57" style="stroke:#181818;stroke-width:1.0;"/></g><!--link SQLModelAsset to DBDriver--><g id="link_SQLModelAsset_DBDriver"><path codeLine="41" d="M193.0316,393.8199 C213.9516,409.1399 228.598,419.8467 259.618,442.5467 " fill="none" id="SQLModelAsset-DBDriver" style="stroke:#181818;stroke-width:1.0;"/><polygon fill="none" points="183.35,386.73,185.8275,393.5022,193.0316,393.8199,190.5541,387.0478,183.35,386.73" style="stroke:#181818;stroke-width:1.0;"/><polygon fill="#181818" points="264.46,446.09,259.5592,437.547,260.425,443.1372,254.8348,444.003,264.46,446.09" style="stroke:#181818;stroke-width:1.0;"/></g><!--link SQLModelAsset to SQLModelDescriptor--><g id="link_SQLModelAsset_SQLModelDescriptor"><path codeLine="42" d="M141.5305,398.0617 C130.2005,437.4217 112.2607,499.7344 100.8807,539.2444 " fill="none" id="SQLModelAsset-SQLModelDescriptor" style="stroke:#181818;stroke-width:1.0;"/><polygon fill="none" points="144.85,386.53,139.3463,391.1894,141.5305,398.0617,147.0342,393.4024,144.85,386.53" style="stroke:#181818;stroke-width:1.0;"/><polygon fill="#181818" points="99.22,545.01,105.5547,537.4687,100.6039,540.2053,97.8672,535.2545,99.22,545.01" style="stroke:#181818;stroke-width:1.0;"/></g><!--link SeedAsset to DBDriver--><g id="link_SeedAsset_DBDriver"><path codeLine="43" d="M431.5,398.53 C431.5,413.92 431.5,417.46 431.5,440.35 " fill="none" id="SeedAsset-DBDriver" style="stroke:#181818;stroke-width:1.0;"/><polygon fill="none" points="431.5,386.53,427.5,392.53,431.5,398.53,435.5,392.53,431.5,386.53" style="stroke:#181818;stroke-width:1.0;"/><polygon fill="#181818" points="431.5,446.35,435.5,437.35,431.5,441.35,427.5,437.35,431.5,446.35" style="stroke:#181818;stroke-width:1.0;"/></g><!--reverse link DBDriver to DuckDB--><g id="link_DBDriver_DuckDB"><path codeLine="44" d="M295.9287,705.2145 C273.0087,728.0145 264.21,736.77 248.79,752.11 " fill="none" id="DBDriver-backto-DuckDB" style="stroke:#181818;stroke-width:1.0;stroke-dasharray:7.0,7.0;"/><polygon fill="none" points="308.69,692.52,291.6972,700.9607,300.1602,709.4682,308.69,692.52" style="stroke:#181818;stroke-width:1.0;"/></g><!--reverse link DBDriver to PossgreSQL--><g id="link_DBDriver_PossgreSQL"><path codeLine="45" d="M381.941,709.4767 C373.821,732.2767 372.22,736.77 366.75,752.11 " fill="none" id="DBDriver-backto-PossgreSQL" style="stroke:#181818;stroke-width:1.0;stroke-dasharray:7.0,7.0;"/><polygon fill="none" points="387.98,692.52,376.2888,707.4637,387.5933,711.4897,387.98,692.52" style="stroke:#181818;stroke-width:1.0;"/></g><!--reverse link DBDriver to ClickHouse--><g id="link_DBDriver_ClickHouse"><path codeLine="46" d="M480.3862,709.5025 C488.3962,732.3025 489.97,736.77 495.36,752.11 " fill="none" id="DBDriver-backto-ClickHouse" style="stroke:#181818;stroke-width:1.0;stroke-dasharray:7.0,7.0;"/><polygon fill="none" points="474.42,692.52,474.7254,711.4912,486.047,707.5137,474.42,692.52" style="stroke:#181818;stroke-width:1.0;"/></g><!--reverse link DBDriver to MySQL--><g id="link_DBDriver_MySQL"><path codeLine="47" d="M562.6696,705.4335 C584.8096,728.2335 593.1,736.77 608,752.11 " fill="none" id="DBDriver-backto-MySQL" style="stroke:#181818;stroke-width:1.0;stroke-dasharray:7.0,7.0;"/><polygon fill="none" points="550.13,692.52,558.3652,709.6133,566.9741,701.2536,550.13,692.52" style="stroke:#181818;stroke-width:1.0;"/></g><!--reverse link DAG to ChannelDAG--><g id="link_DAG_ChannelDAG"><path codeLine="49" d="M718.5,122.53 C718.5,152.92 718.5,172.93 718.5,196.96 " fill="none" id="DAG-backto-ChannelDAG" style="stroke:#181818;stroke-width:1.0;stroke-dasharray:7.0,7.0;"/><polygon fill="none" points="718.5,104.53,712.5,122.53,724.5,122.53,718.5,104.53" style="stroke:#181818;stroke-width:1.0;"/></g><!--link Routine to ChannelDAG--><g id="link_Routine_ChannelDAG"><path codeLine="50" d="M630.31,221.44 C641.72,221.44 635.12,221.44 646.53,221.44 " fill="none" id="Routine-ChannelDAG" style="stroke:#181818;stroke-width:1.0;"/><polygon fill="#181818" points="624.31,221.44,633.31,225.44,629.31,221.44,633.31,217.44,624.31,221.44" style="stroke:#181818;stroke-width:1.0;"/><polygon fill="#181818" points="658.53,221.44,652.53,217.44,646.53,221.44,652.53,225.44,658.53,221.44" style="stroke:#181818;stroke-width:1.0;"/></g><!--link Asset to Routine--><g id="link_Asset_Routine"><path codeLine="51" d="M510.39,221.44 C521.84,221.44 515.28,221.44 526.73,221.44 " fill="none" id="Asset-Routine" style="stroke:#181818;stroke-width:1.0;"/><polygon fill="#181818" points="504.39,221.44,513.39,225.44,509.39,221.44,513.39,217.44,504.39,221.44" style="stroke:#181818;stroke-width:1.0;"/><polygon fill="none" points="538.73,221.44,532.73,217.44,526.73,221.44,532.73,225.44,538.73,221.44" style="stroke:#181818;stroke-width:1.0;"/></g><!--SRC=[dLFBRjim43o7Ny6ZRCVwX02nbBe1uiQr6lGGv43JAuamHQfSidMGvjzBoNgvie4WkaYSsLdj3eP2MJ0fuq1l4S7IDqBzCxix07SM0g5APsd1ocUqHgZiHRJrR-yJ6WnErnICqMP2hcPBi4-bhmTMO32Xpoz7xP69zHzrYVl62l1W0xqJ4ac6I9Fl3okz0rbFIEwxYUD5RCHlC7xegrcabG9klRoUmoCBo8GABauPwQ8GDh07Uh9JgzumARUCxoyMH58Z37vNMVPVyJN5Nx9Pfo_qYpu8j8_f5m5oXoEDPLi9bHMTSk1Ib0FV_wWgxWw-oKVKMwrbgqnu3WMx8CMQFAUznpMOWYbGbS4DkD9EsKGxmo70-hKsEXKIw9HhbOeCmsG8zmuygSzgkqp4Zk_ZHNDOQyJCWCz90qHIyFrNxH0QOFNQassSOa1kH6bzsq6cRfVj7TYuAZrJV5Ky_Cc4NHhjIZ_zsc4UX65OXIYnkWmcrLYyxhtHpWe5X9nabeQk3F_U7AyOMJwU0HE0tJduf8sU6v7bTdxJHNzKuBap-_NTwufEVNIn_MK7ztwEgDxP4LLxF499b3D_CsLbRClvpo4ydKj8_LQDUPIq7xeXwj7_0G00]--></g></svg>