<?xml version="1.0" encoding="us-ascii" standalone="no"?><svg xmlns="http://www.w3.org/2000/svg" xmlns:xlink="http://www.w3.org/1999/xlink" contentStyleType="text/css" height="715px" preserveAspectRatio="none" style="width:1062px;height:715px;background:#FFFFFF;" version="1.1" viewBox="0 0 1062 715" width="1062px" zoomAndPan="magnify"><defs/><g><!--class Asset--><g id="elem_Asset"><rect codeLine="2" fill="#F1F1F1" height="113.9531" id="Asset" rx="2.5" ry="2.5" style="stroke:#181818;stroke-width:0.5;" width="407" x="263" y="164.47"/><ellipse cx="443.75" cy="180.47" fill="#B4A7E5" rx="11" ry="11" style="stroke:#181818;stroke-width:1.0;"/><path d="M440.1777,176.7351 L440.1777,174.5769 L447.5571,174.5769 L447.5571,176.7351 L445.0918,176.7351 L445.0918,184.8118 L447.5571,184.8118 L447.5571,186.97 L440.1777,186.97 L440.1777,184.8118 L442.6431,184.8118 L442.6431,176.7351 Z " fill="#000000"/><text fill="#000000" font-family="sans-serif" font-size="14" font-style="italic" lengthAdjust="spacing" textLength="37" x="464.25" y="185.761">Asset</text><line style="stroke:#181818;stroke-width:0.5;" x1="264" x2="669" y1="196.47" y2="196.47"/><line style="stroke:#181818;stroke-width:0.5;" x1="264" x2="669" y1="204.47" y2="204.47"/><ellipse cx="274" cy="218.2141" fill="#84BE84" rx="3" ry="3" style="stroke:#038048;stroke-width:1.0;"/><text fill="#000000" font-family="sans-serif" font-size="14" lengthAdjust="spacing" textLength="381" x="283" y="222.0052">Execute(input map[string]interface{}) (interface{}, error)</text><ellipse cx="274" cy="234.7024" fill="#84BE84" rx="3" ry="3" style="stroke:#038048;stroke-width:1.0;"/><text fill="#000000" font-family="sans-serif" font-size="14" lengthAdjust="spacing" textLength="160" x="283" y="238.4934">GetUpstreams() []string</text><ellipse cx="274" cy="251.1907" fill="#84BE84" rx="3" ry="3" style="stroke:#038048;stroke-width:1.0;"/><text fill="#000000" font-family="sans-serif" font-size="14" lengthAdjust="spacing" textLength="180" x="283" y="254.9817">GetDownstreams() []string</text><ellipse cx="274" cy="267.679" fill="#84BE84" rx="3" ry="3" style="stroke:#038048;stroke-width:1.0;"/><text fill="#000000" font-family="sans-serif" font-size="14" lengthAdjust="spacing" textLength="116" x="283" y="271.47">GetName() string</text></g><!--class SQLModelAsset--><g id="elem_SQLModelAsset"><rect codeLine="9" fill="#F1F1F1" height="48" id="SQLModelAsset" rx="2.5" ry="2.5" style="stroke:#181818;stroke-width:0.5;" width="137" x="86" y="437.35"/><ellipse cx="101" cy="453.35" fill="#ADD1B2" rx="11" ry="11" style="stroke:#181818;stroke-width:1.0;"/><path d="M103.4731,459.4931 Q102.8921,459.7919 102.2529,459.9413 Q101.6138,460.0907 100.9082,460.0907 Q98.4014,460.0907 97.0815,458.4389 Q95.7617,456.787 95.7617,453.6659 Q95.7617,450.5365 97.0815,448.8847 Q98.4014,447.2328 100.9082,447.2328 Q101.6138,447.2328 102.2612,447.3822 Q102.9087,447.5316 103.4731,447.8305 L103.4731,450.5531 Q102.8423,449.9721 102.2488,449.7023 Q101.6553,449.4325 101.0244,449.4325 Q99.6797,449.4325 98.9949,450.4992 Q98.3101,451.5658 98.3101,453.6659 Q98.3101,455.7577 98.9949,456.8244 Q99.6797,457.891 101.0244,457.891 Q101.6553,457.891 102.2488,457.6212 Q102.8423,457.3515 103.4731,456.7704 Z " fill="#000000"/><text fill="#000000" font-family="sans-serif" font-size="14" lengthAdjust="spacing" textLength="105" x="115" y="458.641">SQLModelAsset</text><line style="stroke:#181818;stroke-width:0.5;" x1="87" x2="222" y1="469.35" y2="469.35"/><line style="stroke:#181818;stroke-width:0.5;" x1="87" x2="222" y1="477.35" y2="477.35"/></g><!--class DBDriver--><g id="elem_DBDriver"><rect codeLine="10" fill="#F1F1F1" height="245.8594" id="DBDriver" rx="2.5" ry="2.5" style="stroke:#181818;stroke-width:0.5;" width="437" x="258" y="338.42"/><ellipse cx="442.75" cy="354.42" fill="#B4A7E5" rx="11" ry="11" style="stroke:#181818;stroke-width:1.0;"/><path d="M439.1777,350.6851 L439.1777,348.5269 L446.5571,348.5269 L446.5571,350.6851 L444.0918,350.6851 L444.0918,358.7618 L446.5571,358.7618 L446.5571,360.92 L439.1777,360.92 L439.1777,358.7618 L441.6431,358.7618 L441.6431,350.6851 Z " fill="#000000"/><text fill="#000000" font-family="sans-serif" font-size="14" font-style="italic" lengthAdjust="spacing" textLength="59" x="463.25" y="359.711">DBDriver</text><line style="stroke:#181818;stroke-width:0.5;" x1="259" x2="694" y1="370.42" y2="370.42"/><line style="stroke:#181818;stroke-width:0.5;" x1="259" x2="694" y1="378.42" y2="378.42"/><ellipse cx="269" cy="392.1641" fill="#84BE84" rx="3" ry="3" style="stroke:#038048;stroke-width:1.0;"/><text fill="#000000" font-family="sans-serif" font-size="14" lengthAdjust="spacing" textLength="106" x="278" y="395.9552">Connect() error</text><ellipse cx="269" cy="408.6524" fill="#84BE84" rx="3" ry="3" style="stroke:#038048;stroke-width:1.0;"/><text fill="#000000" font-family="sans-serif" font-size="14" lengthAdjust="spacing" textLength="175" x="278" y="412.4434">Begin() (interface{}, error)</text><ellipse cx="269" cy="425.1407" fill="#84BE84" rx="3" ry="3" style="stroke:#038048;stroke-width:1.0;"/><text fill="#000000" font-family="sans-serif" font-size="14" lengthAdjust="spacing" textLength="191" x="278" y="428.9317">Commit(tx interface{}) error</text><ellipse cx="269" cy="441.629" fill="#84BE84" rx="3" ry="3" style="stroke:#038048;stroke-width:1.0;"/><text fill="#000000" font-family="sans-serif" font-size="14" lengthAdjust="spacing" textLength="194" x="278" y="445.42">Rallback(tx interface{}) error</text><ellipse cx="269" cy="458.1173" fill="#84BE84" rx="3" ry="3" style="stroke:#038048;stroke-width:1.0;"/><text fill="#000000" font-family="sans-serif" font-size="14" lengthAdjust="spacing" textLength="87" x="278" y="461.9083">Close() error</text><ellipse cx="269" cy="474.6055" fill="#84BE84" rx="3" ry="3" style="stroke:#038048;stroke-width:1.0;"/><text fill="#000000" font-family="sans-serif" font-size="14" lengthAdjust="spacing" textLength="241" x="278" y="478.3966">Exec(tx interface{}, sql string) error</text><ellipse cx="269" cy="491.0938" fill="#84BE84" rx="3" ry="3" style="stroke:#038048;stroke-width:1.0;"/><text fill="#000000" font-family="sans-serif" font-size="14" lengthAdjust="spacing" textLength="379" x="278" y="494.8848">GetListOfFields(tx interface{}, tableName string) []string</text><ellipse cx="269" cy="507.5821" fill="#84BE84" rx="3" ry="3" style="stroke:#038048;stroke-width:1.0;"/><text fill="#000000" font-family="sans-serif" font-size="14" lengthAdjust="spacing" textLength="378" x="278" y="511.3731">CheckTableExists(tx interface{}, tableName string) bool</text><ellipse cx="269" cy="524.0704" fill="#84BE84" rx="3" ry="3" style="stroke:#038048;stroke-width:1.0;"/><text fill="#000000" font-family="sans-serif" font-size="14" lengthAdjust="spacing" textLength="411" x="278" y="527.8614">CheckSchemaExists(tx interface{}, schemaName string) bool</text><ellipse cx="269" cy="540.5587" fill="#84BE84" rx="3" ry="3" style="stroke:#038048;stroke-width:1.0;"/><text fill="#000000" font-family="sans-serif" font-size="14" lengthAdjust="spacing" textLength="130" x="278" y="544.3497">IsPermanent() bool</text><ellipse cx="269" cy="557.047" fill="#84BE84" rx="3" ry="3" style="stroke:#038048;stroke-width:1.0;"/><text fill="#000000" font-family="sans-serif" font-size="14" lengthAdjust="spacing" textLength="386" x="278" y="560.838">MountSource(sourceProfile *configs.SourceProfile) error</text><ellipse cx="269" cy="573.5352" fill="#84BE84" rx="3" ry="3" style="stroke:#038048;stroke-width:1.0;"/><text fill="#000000" font-family="sans-serif" font-size="14" lengthAdjust="spacing" textLength="405" x="278" y="577.3263">UnMountSource(sourceProfile *configs.SourceProfile) error</text></g><!--class DuckDB--><g id="elem_DuckDB"><rect codeLine="25" fill="#F1F1F1" height="48" id="DuckDB" rx="2.5" ry="2.5" style="stroke:#181818;stroke-width:0.5;" width="84" x="612.5" y="652.53"/><ellipse cx="627.5" cy="668.53" fill="#ADD1B2" rx="11" ry="11" style="stroke:#181818;stroke-width:1.0;"/><path d="M629.9731,674.6731 Q629.3921,674.9719 628.7529,675.1213 Q628.1138,675.2707 627.4082,675.2707 Q624.9014,675.2707 623.5815,673.6189 Q622.2617,671.967 622.2617,668.8459 Q622.2617,665.7165 623.5815,664.0647 Q624.9014,662.4128 627.4082,662.4128 Q628.1138,662.4128 628.7612,662.5622 Q629.4087,662.7116 629.9731,663.0105 L629.9731,665.7331 Q629.3423,665.1521 628.7488,664.8823 Q628.1553,664.6125 627.5244,664.6125 Q626.1797,664.6125 625.4949,665.6792 Q624.8101,666.7458 624.8101,668.8459 Q624.8101,670.9377 625.4949,672.0044 Q626.1797,673.071 627.5244,673.071 Q628.1553,673.071 628.7488,672.8012 Q629.3423,672.5315 629.9731,671.9504 Z " fill="#000000"/><text fill="#000000" font-family="sans-serif" font-size="14" lengthAdjust="spacing" textLength="52" x="641.5" y="673.821">DuckDB</text><line style="stroke:#181818;stroke-width:0.5;" x1="613.5" x2="695.5" y1="684.53" y2="684.53"/><line style="stroke:#181818;stroke-width:0.5;" x1="613.5" x2="695.5" y1="692.53" y2="692.53"/></g><!--class PostgreSQL--><g id="elem_PostgreSQL"><rect codeLine="26" fill="#F1F1F1" height="48" id="PostgreSQL" rx="2.5" ry="2.5" style="stroke:#181818;stroke-width:0.5;" width="110" x="213.5" y="652.53"/><ellipse cx="228.5" cy="668.53" fill="#ADD1B2" rx="11" ry="11" style="stroke:#181818;stroke-width:1.0;"/><path d="M230.9731,674.6731 Q230.3921,674.9719 229.7529,675.1213 Q229.1138,675.2707 228.4082,675.2707 Q225.9014,675.2707 224.5815,673.6189 Q223.2617,671.967 223.2617,668.8459 Q223.2617,665.7165 224.5815,664.0647 Q225.9014,662.4128 228.4082,662.4128 Q229.1138,662.4128 229.7612,662.5622 Q230.4087,662.7116 230.9731,663.0105 L230.9731,665.7331 Q230.3423,665.1521 229.7488,664.8823 Q229.1553,664.6125 228.5244,664.6125 Q227.1797,664.6125 226.4949,665.6792 Q225.8101,666.7458 225.8101,668.8459 Q225.8101,670.9377 226.4949,672.0044 Q227.1797,673.071 228.5244,673.071 Q229.1553,673.071 229.7488,672.8012 Q230.3423,672.5315 230.9731,671.9504 Z " fill="#000000"/><text fill="#000000" font-family="sans-serif" font-size="14" lengthAdjust="spacing" textLength="78" x="242.5" y="673.821">PostgreSQL</text><line style="stroke:#181818;stroke-width:0.5;" x1="214.5" x2="322.5" y1="684.53" y2="684.53"/><line style="stroke:#181818;stroke-width:0.5;" x1="214.5" x2="322.5" y1="692.53" y2="692.53"/></g><!--class ClickHouse--><g id="elem_ClickHouse"><rect codeLine="27" fill="#F1F1F1" height="48" id="ClickHouse" rx="2.5" ry="2.5" style="stroke:#181818;stroke-width:0.5;" width="108" x="358.5" y="652.53"/><ellipse cx="373.5" cy="668.53" fill="#ADD1B2" rx="11" ry="11" style="stroke:#181818;stroke-width:1.0;"/><path d="M375.9731,674.6731 Q375.3921,674.9719 374.7529,675.1213 Q374.1138,675.2707 373.4082,675.2707 Q370.9014,675.2707 369.5815,673.6189 Q368.2617,671.967 368.2617,668.8459 Q368.2617,665.7165 369.5815,664.0647 Q370.9014,662.4128 373.4082,662.4128 Q374.1138,662.4128 374.7612,662.5622 Q375.4087,662.7116 375.9731,663.0105 L375.9731,665.7331 Q375.3423,665.1521 374.7488,664.8823 Q374.1553,664.6125 373.5244,664.6125 Q372.1797,664.6125 371.4949,665.6792 Q370.8101,666.7458 370.8101,668.8459 Q370.8101,670.9377 371.4949,672.0044 Q372.1797,673.071 373.5244,673.071 Q374.1553,673.071 374.7488,672.8012 Q375.3423,672.5315 375.9731,671.9504 Z " fill="#000000"/><text fill="#000000" font-family="sans-serif" font-size="14" lengthAdjust="spacing" textLength="76" x="387.5" y="673.821">ClickHouse</text><line style="stroke:#181818;stroke-width:0.5;" x1="359.5" x2="465.5" y1="684.53" y2="684.53"/><line style="stroke:#181818;stroke-width:0.5;" x1="359.5" x2="465.5" y1="692.53" y2="692.53"/></g><!--class MySQL--><g id="elem_MySQL"><rect codeLine="28" fill="#F1F1F1" height="48" id="MySQL" rx="2.5" ry="2.5" style="stroke:#181818;stroke-width:0.5;" width="77" x="501" y="652.53"/><ellipse cx="516" cy="668.53" fill="#ADD1B2" rx="11" ry="11" style="stroke:#181818;stroke-width:1.0;"/><path d="M518.4731,674.6731 Q517.8921,674.9719 517.2529,675.1213 Q516.6138,675.2707 515.9082,675.2707 Q513.4014,675.2707 512.0815,673.6189 Q510.7617,671.967 510.7617,668.8459 Q510.7617,665.7165 512.0815,664.0647 Q513.4014,662.4128 515.9082,662.4128 Q516.6138,662.4128 517.2612,662.5622 Q517.9087,662.7116 518.4731,663.0105 L518.4731,665.7331 Q517.8423,665.1521 517.2488,664.8823 Q516.6553,664.6125 516.0244,664.6125 Q514.6797,664.6125 513.9949,665.6792 Q513.3101,666.7458 513.3101,668.8459 Q513.3101,670.9377 513.9949,672.0044 Q514.6797,673.071 516.0244,673.071 Q516.6553,673.071 517.2488,672.8012 Q517.8423,672.5315 518.4731,671.9504 Z " fill="#000000"/><text fill="#000000" font-family="sans-serif" font-size="14" lengthAdjust="spacing" textLength="45" x="530" y="673.821">MySQL</text><line style="stroke:#181818;stroke-width:0.5;" x1="502" x2="577" y1="684.53" y2="684.53"/><line style="stroke:#181818;stroke-width:0.5;" x1="502" x2="577" y1="692.53" y2="692.53"/></g><!--class SQLModelDescriptor--><g id="elem_SQLModelDescriptor"><rect codeLine="29" fill="#F1F1F1" height="48" id="SQLModelDescriptor" rx="2.5" ry="2.5" style="stroke:#181818;stroke-width:0.5;" width="171" x="7" y="652.53"/><ellipse cx="22" cy="668.53" fill="#ADD1B2" rx="11" ry="11" style="stroke:#181818;stroke-width:1.0;"/><path d="M24.4731,674.6731 Q23.8921,674.9719 23.2529,675.1213 Q22.6138,675.2707 21.9082,675.2707 Q19.4014,675.2707 18.0815,673.6189 Q16.7617,671.967 16.7617,668.8459 Q16.7617,665.7165 18.0815,664.0647 Q19.4014,662.4128 21.9082,662.4128 Q22.6138,662.4128 23.2612,662.5622 Q23.9087,662.7116 24.4731,663.0105 L24.4731,665.7331 Q23.8423,665.1521 23.2488,664.8823 Q22.6553,664.6125 22.0244,664.6125 Q20.6797,664.6125 19.9949,665.6792 Q19.3101,666.7458 19.3101,668.8459 Q19.3101,670.9377 19.9949,672.0044 Q20.6797,673.071 22.0244,673.071 Q22.6553,673.071 23.2488,672.8012 Q23.8423,672.5315 24.4731,671.9504 Z " fill="#000000"/><text fill="#000000" font-family="sans-serif" font-size="14" lengthAdjust="spacing" textLength="139" x="36" y="673.821">SQLModelDescriptor</text><line style="stroke:#181818;stroke-width:0.5;" x1="8" x2="177" y1="684.53" y2="684.53"/><line style="stroke:#181818;stroke-width:0.5;" x1="8" x2="177" y1="692.53" y2="692.53"/></g><!--class DAG--><g id="elem_DAG"><rect codeLine="30" fill="#F1F1F1" height="97.4648" id="DAG" rx="2.5" ry="2.5" style="stroke:#181818;stroke-width:0.5;" width="180" x="794.5" y="7"/><ellipse cx="865.25" cy="23" fill="#B4A7E5" rx="11" ry="11" style="stroke:#181818;stroke-width:1.0;"/><path d="M861.6777,19.2651 L861.6777,17.1069 L869.0571,17.1069 L869.0571,19.2651 L866.5918,19.2651 L866.5918,27.3418 L869.0571,27.3418 L869.0571,29.5 L861.6777,29.5 L861.6777,27.3418 L864.1431,27.3418 L864.1431,19.2651 Z " fill="#000000"/><text fill="#000000" font-family="sans-serif" font-size="14" font-style="italic" lengthAdjust="spacing" textLength="30" x="885.75" y="28.291">DAG</text><line style="stroke:#181818;stroke-width:0.5;" x1="795.5" x2="973.5" y1="39" y2="39"/><line style="stroke:#181818;stroke-width:0.5;" x1="795.5" x2="973.5" y1="47" y2="47"/><ellipse cx="805.5" cy="60.7441" fill="#84BE84" rx="3" ry="3" style="stroke:#038048;stroke-width:1.0;"/><text fill="#000000" font-family="sans-serif" font-size="14" lengthAdjust="spacing" textLength="154" x="814.5" y="64.5352">Run() *sync.WaitGroup</text><ellipse cx="805.5" cy="77.2324" fill="#84BE84" rx="3" ry="3" style="stroke:#038048;stroke-width:1.0;"/><text fill="#000000" font-family="sans-serif" font-size="14" lengthAdjust="spacing" textLength="55" x="814.5" y="81.0234">Push(...)</text><ellipse cx="805.5" cy="93.7207" fill="#84BE84" rx="3" ry="3" style="stroke:#038048;stroke-width:1.0;"/><text fill="#000000" font-family="sans-serif" font-size="14" lengthAdjust="spacing" textLength="41" x="814.5" y="97.5117">Stop()</text></g><!--class Executor--><g id="elem_Executor"><rect codeLine="36" fill="#F1F1F1" height="64.4883" id="Executor" rx="2.5" ry="2.5" style="stroke:#181818;stroke-width:0.5;" width="324" x="731.5" y="644.28"/><ellipse cx="858.75" cy="660.28" fill="#B4A7E5" rx="11" ry="11" style="stroke:#181818;stroke-width:1.0;"/><path d="M855.1777,656.5451 L855.1777,654.3869 L862.5571,654.3869 L862.5571,656.5451 L860.0918,656.5451 L860.0918,664.6218 L862.5571,664.6218 L862.5571,666.78 L855.1777,666.78 L855.1777,664.6218 L857.6431,664.6218 L857.6431,656.5451 Z " fill="#000000"/><text fill="#000000" font-family="sans-serif" font-size="14" font-style="italic" lengthAdjust="spacing" textLength="61" x="879.25" y="665.571">Executor</text><line style="stroke:#181818;stroke-width:0.5;" x1="732.5" x2="1054.5" y1="676.28" y2="676.28"/><line style="stroke:#181818;stroke-width:0.5;" x1="732.5" x2="1054.5" y1="684.28" y2="684.28"/><ellipse cx="742.5" cy="698.0241" fill="#84BE84" rx="3" ry="3" style="stroke:#038048;stroke-width:1.0;"/><text fill="#000000" font-family="sans-serif" font-size="14" lengthAdjust="spacing" textLength="298" x="751.5" y="701.8152">func(input, modelProfile) (interface{}, error)</text></g><!--class Routine--><g id="elem_Routine"><rect codeLine="40" fill="#F1F1F1" height="48" id="Routine" rx="2.5" ry="2.5" style="stroke:#181818;stroke-width:0.5;" width="85" x="705" y="197.45"/><ellipse cx="720" cy="213.45" fill="#ADD1B2" rx="11" ry="11" style="stroke:#181818;stroke-width:1.0;"/><path d="M722.4731,219.5931 Q721.8921,219.8919 721.2529,220.0413 Q720.6138,220.1907 719.9082,220.1907 Q717.4014,220.1907 716.0815,218.5389 Q714.7617,216.887 714.7617,213.7659 Q714.7617,210.6365 716.0815,208.9847 Q717.4014,207.3328 719.9082,207.3328 Q720.6138,207.3328 721.2612,207.4822 Q721.9087,207.6316 722.4731,207.9305 L722.4731,210.6531 Q721.8423,210.0721 721.2488,209.8023 Q720.6553,209.5325 720.0244,209.5325 Q718.6797,209.5325 717.9949,210.5992 Q717.3101,211.6658 717.3101,213.7659 Q717.3101,215.8577 717.9949,216.9244 Q718.6797,217.991 720.0244,217.991 Q720.6553,217.991 721.2488,217.7212 Q721.8423,217.4515 722.4731,216.8704 Z " fill="#000000"/><text fill="#000000" font-family="sans-serif" font-size="14" lengthAdjust="spacing" textLength="53" x="734" y="218.741">Routine</text><line style="stroke:#181818;stroke-width:0.5;" x1="706" x2="789" y1="229.45" y2="229.45"/><line style="stroke:#181818;stroke-width:0.5;" x1="706" x2="789" y1="237.45" y2="237.45"/></g><!--class RawAsset--><g id="elem_RawAsset"><rect fill="#F1F1F1" height="48" id="RawAsset" rx="2.5" ry="2.5" style="stroke:#181818;stroke-width:0.5;" width="97" x="787" y="437.35"/><ellipse cx="802" cy="453.35" fill="#ADD1B2" rx="11" ry="11" style="stroke:#181818;stroke-width:1.0;"/><path d="M804.4731,459.4931 Q803.8921,459.7919 803.2529,459.9413 Q802.6138,460.0907 801.9082,460.0907 Q799.4014,460.0907 798.0815,458.4389 Q796.7617,456.787 796.7617,453.6659 Q796.7617,450.5365 798.0815,448.8847 Q799.4014,447.2328 801.9082,447.2328 Q802.6138,447.2328 803.2612,447.3822 Q803.9087,447.5316 804.4731,447.8305 L804.4731,450.5531 Q803.8423,449.9721 803.2488,449.7023 Q802.6553,449.4325 802.0244,449.4325 Q800.6797,449.4325 799.9949,450.4992 Q799.3101,451.5658 799.3101,453.6659 Q799.3101,455.7577 799.9949,456.8244 Q800.6797,457.891 802.0244,457.891 Q802.6553,457.891 803.2488,457.6212 Q803.8423,457.3515 804.4731,456.7704 Z " fill="#000000"/><text fill="#000000" font-family="sans-serif" font-size="14" lengthAdjust="spacing" textLength="65" x="816" y="458.641">RawAsset</text><line style="stroke:#181818;stroke-width:0.5;" x1="788" x2="883" y1="469.35" y2="469.35"/><line style="stroke:#181818;stroke-width:0.5;" x1="788" x2="883" y1="477.35" y2="477.35"/></g><!--class ChannelDAG--><g id="elem_ChannelDAG"><rect fill="#F1F1F1" height="48" id="ChannelDAG" rx="2.5" ry="2.5" style="stroke:#181818;stroke-width:0.5;" width="119" x="825" y="197.45"/><ellipse cx="840" cy="213.45" fill="#ADD1B2" rx="11" ry="11" style="stroke:#181818;stroke-width:1.0;"/><path d="M842.4731,219.5931 Q841.8921,219.8919 841.2529,220.0413 Q840.6138,220.1907 839.9082,220.1907 Q837.4014,220.1907 836.0815,218.5389 Q834.7617,216.887 834.7617,213.7659 Q834.7617,210.6365 836.0815,208.9847 Q837.4014,207.3328 839.9082,207.3328 Q840.6138,207.3328 841.2612,207.4822 Q841.9087,207.6316 842.4731,207.9305 L842.4731,210.6531 Q841.8423,210.0721 841.2488,209.8023 Q840.6553,209.5325 840.0244,209.5325 Q838.6797,209.5325 837.9949,210.5992 Q837.3101,211.6658 837.3101,213.7659 Q837.3101,215.8577 837.9949,216.9244 Q838.6797,217.991 840.0244,217.991 Q840.6553,217.991 841.2488,217.7212 Q841.8423,217.4515 842.4731,216.8704 Z " fill="#000000"/><text fill="#000000" font-family="sans-serif" font-size="14" lengthAdjust="spacing" textLength="87" x="854" y="218.741">ChannelDAG</text><line style="stroke:#181818;stroke-width:0.5;" x1="826" x2="943" y1="229.45" y2="229.45"/><line style="stroke:#181818;stroke-width:0.5;" x1="826" x2="943" y1="237.45" y2="237.45"/></g><!--reverse link Asset to SQLModelAsset--><g id="link_Asset_SQLModelAsset"><path codeLine="42" d="M314.4643,287.2589 C283.0643,303.7989 267.05,315.36 240.5,338.42 C207.65,366.96 180.88,410.56 166.35,437.15 " fill="none" id="Asset-backto-SQLModelAsset" style="stroke:#181818;stroke-width:1.0;stroke-dasharray:7.0,7.0;"/><polygon fill="none" points="330.39,278.87,311.668,281.9503,317.2606,292.5674,330.39,278.87" style="stroke:#181818;stroke-width:1.0;"/></g><!--reverse link Asset to RawAsset--><g id="link_Asset_RawAsset"><path codeLine="43" d="M623.6506,286.5297 C659.2906,303.4497 680.3,315.88 712.5,338.42 C753.88,367.39 793.92,410.85 816.56,437.3 " fill="none" id="Asset-backto-RawAsset" style="stroke:#181818;stroke-width:1.0;stroke-dasharray:7.0,7.0;"/><polygon fill="none" points="607.39,278.81,621.0774,291.9499,626.2238,281.1095,607.39,278.81" style="stroke:#181818;stroke-width:1.0;"/></g><!--link SQLModelAsset to DBDriver--><g id="link_SQLModelAsset_DBDriver"><path codeLine="44" d="M235.37,461.35 C246.9,461.35 240.44,461.35 251.97,461.35 " fill="none" id="SQLModelAsset-DBDriver" style="stroke:#181818;stroke-width:1.0;"/><polygon fill="none" points="223.37,461.35,229.37,465.35,235.37,461.35,229.37,457.35,223.37,461.35" style="stroke:#181818;stroke-width:1.0;"/><polygon fill="#181818" points="257.97,461.35,248.97,457.35,252.97,461.35,248.97,465.35,257.97,461.35" style="stroke:#181818;stroke-width:1.0;"/></g><!--link SQLModelAsset to SQLModelDescriptor--><g id="link_SQLModelAsset_SQLModelDescriptor"><path codeLine="45" d="M144.3981,497.0924 C132.4681,538.1024 112.8467,605.589 100.9167,646.579 " fill="none" id="SQLModelAsset-SQLModelDescriptor" style="stroke:#181818;stroke-width:1.0;"/><polygon fill="none" points="147.75,485.57,142.2333,490.2139,144.3981,497.0924,149.9148,492.4485,147.75,485.57" style="stroke:#181818;stroke-width:1.0;"/><polygon fill="#181818" points="99.24,652.34,105.5957,644.8164,100.6373,647.5392,97.9144,642.5808,99.24,652.34" style="stroke:#181818;stroke-width:1.0;"/></g><!--link RawAsset to Executor--><g id="link_RawAsset_Executor"><path codeLine="46" d="M844.9695,497.1493 C855.4195,535.5693 871.5945,595.0306 883.3645,638.2806 " fill="none" id="RawAsset-Executor" style="stroke:#181818;stroke-width:1.0;"/><polygon fill="none" points="841.82,485.57,839.535,492.4095,844.9695,497.1493,847.2545,490.3098,841.82,485.57" style="stroke:#181818;stroke-width:1.0;"/><polygon fill="#181818" points="884.94,644.07,886.4363,634.3355,883.6271,639.2455,878.7171,636.4362,884.94,644.07" style="stroke:#181818;stroke-width:1.0;"/></g><!--reverse link DBDriver to DuckDB--><g id="link_DBDriver_DuckDB"><path codeLine="47" d="M590.0359,598.3175 C611.6259,624.1775 620.64,634.98 634.92,652.07 " fill="none" id="DBDriver-backto-DuckDB" style="stroke:#181818;stroke-width:1.0;stroke-dasharray:7.0,7.0;"/><polygon fill="none" points="578.5,584.5,585.4301,602.1628,594.6417,594.4722,578.5,584.5" style="stroke:#181818;stroke-width:1.0;"/></g><!--reverse link DBDriver to PostgreSQL--><g id="link_DBDriver_PostgreSQL"><path codeLine="48" d="M344.74,597.3839 C319.51,623.2439 308.06,634.98 291.38,652.07 " fill="none" id="DBDriver-backto-PostgreSQL" style="stroke:#181818;stroke-width:1.0;stroke-dasharray:7.0,7.0;"/><polygon fill="none" points="357.31,584.5,340.4454,593.1939,349.0346,601.5739,357.31,584.5" style="stroke:#181818;stroke-width:1.0;"/></g><!--reverse link DBDriver to ClickHouse--><g id="link_DBDriver_ClickHouse"><path codeLine="49" d="M434.6504,601.7387 C426.8804,627.5987 424.67,634.98 419.54,652.07 " fill="none" id="DBDriver-backto-ClickHouse" style="stroke:#181818;stroke-width:1.0;stroke-dasharray:7.0,7.0;"/><polygon fill="none" points="439.83,584.5,428.9042,600.0121,440.3966,603.4652,439.83,584.5" style="stroke:#181818;stroke-width:1.0;"/></g><!--reverse link DBDriver to MySQL--><g id="link_DBDriver_MySQL"><path codeLine="50" d="M517.7,601.7624 C525.34,627.6224 527.52,634.98 532.57,652.07 " fill="none" id="DBDriver-backto-MySQL" style="stroke:#181818;stroke-width:1.0;stroke-dasharray:7.0,7.0;"/><polygon fill="none" points="512.6,584.5,511.9458,603.4624,523.4541,600.0624,512.6,584.5" style="stroke:#181818;stroke-width:1.0;"/></g><!--reverse link DAG to ChannelDAG--><g id="link_DAG_ChannelDAG"><path codeLine="52" d="M884.5,122.53 C884.5,152.92 884.5,172.93 884.5,196.96 " fill="none" id="DAG-backto-ChannelDAG" style="stroke:#181818;stroke-width:1.0;stroke-dasharray:7.0,7.0;"/><polygon fill="none" points="884.5,104.53,878.5,122.53,890.5,122.53,884.5,104.53" style="stroke:#181818;stroke-width:1.0;"/></g><!--link Routine to ChannelDAG--><g id="link_Routine_ChannelDAG"><path codeLine="53" d="M796.31,221.45 C807.72,221.45 801.12,221.45 812.53,221.45 " fill="none" id="Routine-ChannelDAG" style="stroke:#181818;stroke-width:1.0;"/><polygon fill="#181818" points="790.31,221.45,799.31,225.45,795.31,221.45,799.31,217.45,790.31,221.45" style="stroke:#181818;stroke-width:1.0;"/><polygon fill="#181818" points="824.53,221.45,818.53,217.45,812.53,221.45,818.53,225.45,824.53,221.45" style="stroke:#181818;stroke-width:1.0;"/></g><!--link Asset to Routine--><g id="link_Asset_Routine"><path codeLine="54" d="M676.39,221.45 C687.84,221.45 681.28,221.45 692.73,221.45 " fill="none" id="Asset-Routine" style="stroke:#181818;stroke-width:1.0;"/><polygon fill="#181818" points="670.39,221.45,679.39,225.45,675.39,221.45,679.39,217.45,670.39,221.45" style="stroke:#181818;stroke-width:1.0;"/><polygon fill="none" points="704.73,221.45,698.73,217.45,692.73,221.45,698.73,225.45,704.73,221.45" style="stroke:#181818;stroke-width:1.0;"/></g><!--SRC=[dLFBRjim43o7Ny6Z_D8d18Ybr0aGfwxLe8SW1vfPoOGfhif7uo3DlvTwovKD5DL5qkpESdOvAvG5dJ8EzCOOiFI3KF_CRe_0dOL0gC9PchFYsLWjLFOYsloFpmaD1dzp2bgZdf2hsGhiK-7pWUKccD3dbvfRHs9yKvTYZom73pRG9o6HPCRGvDl36bz1LWh9VQSuNiPQ_0BjHL_D8bGAkFNqIeT7bf095LnK6M6U2nlO8ptfgMLlcPGxnWyN4oA91WR7bIFxAtbEpK_PjDCd-aOVXB5Vqoy2vAiPSIpRIIX7qJ47Kuhsm0_VoupReo_oB-mTecoP2Tz3pYvGJHKynxqt6z0vKw3A0JVW6fso2JhD8J3LQwCn5HBebADAHMR2P0Zt4tXI_yljF14xVeYNpSy6ZSqqU9yqG2G5FzoXCz00w_S-sDef1iErAAmlE_3KpQhTWQqhtJCrxug7FvYmAuskyEetpko3C0nB4oKMYs1IokfBrBk3kdHbwXIlbsXEy_BGhf-phlHrUALnYyuA1OISU9-6hWX_NzUhIhRixGnwIi255jdUBgwxPHab-DYPYNJ5guIs9LAFlJsngzbVm2ZKNyKeL5tA22NHdlbLbkLDj37_EOId2mcfRwgP4YNj1pQ1IleV]--></g></svg>