<?xml version="1.0" encoding="us-ascii" standalone="no"?><svg xmlns="http://www.w3.org/2000/svg" xmlns:xlink="http://www.w3.org/1999/xlink" contentStyleType="text/css" height="699px" preserveAspectRatio="none" style="width:1062px;height:699px;background:#FFFFFF;" version="1.1" viewBox="0 0 1062 699" width="1062px" zoomAndPan="magnify"><defs/><g><!--class Asset--><g id="elem_Asset"><rect codeLine="2" fill="#F1F1F1" height="113.9531" id="Asset" rx="2.5" ry="2.5" style="stroke:#181818;stroke-width:0.5;" width="407" x="263" y="164.47"/><ellipse cx="443.75" cy="180.47" fill="#B4A7E5" rx="11" ry="11" style="stroke:#181818;stroke-width:1.0;"/><path d="M440.1777,176.7351 L440.1777,174.5769 L447.5571,174.5769 L447.5571,176.7351 L445.0918,176.7351 L445.0918,184.8118 L447.5571,184.8118 L447.5571,186.97 L440.1777,186.97 L440.1777,184.8118 L442.6431,184.8118 L442.6431,176.7351 Z " fill="#000000"/><text fill="#000000" font-family="sans-serif" font-size="14" font-style="italic" lengthAdjust="spacing" textLength="37" x="464.25" y="185.761">Asset</text><line style="stroke:#181818;stroke-width:0.5;" x1="264" x2="669" y1="196.47" y2="196.47"/><line style="stroke:#181818;stroke-width:0.5;" x1="264" x2="669" y1="204.47" y2="204.47"/><ellipse cx="274" cy="218.2141" fill="#84BE84" rx="3" ry="3" style="stroke:#038048;stroke-width:1.0;"/><text fill="#000000" font-family="sans-serif" font-size="14" lengthAdjust="spacing" textLength="381" x="283" y="222.0052">Execute(input map[string]interface{}) (interface{}, error)</text><ellipse cx="274" cy="234.7024" fill="#84BE84" rx="3" ry="3" style="stroke:#038048;stroke-width:1.0;"/><text fill="#000000" font-family="sans-serif" font-size="14" lengthAdjust="spacing" textLength="160" x="283" y="238.4934">GetUpstreams() []string</text><ellipse cx="274" cy="251.1907" fill="#84BE84" rx="3" ry="3" style="stroke:#038048;stroke-width:1.0;"/><text fill="#000000" font-family="sans-serif" font-size="14" lengthAdjust="spacing" textLength="180" x="283" y="254.9817">GetDownstreams() []string</text><ellipse cx="274" cy="267.679" fill="#84BE84" rx="3" ry="3" style="stroke:#038048;stroke-width:1.0;"/><text fill="#000000" font-family="sans-serif" font-size="14" lengthAdjust="spacing" textLength="116" x="283" y="271.47">GetName() string</text></g><!--class SQLModelAsset--><g id="elem_SQLModelAsset"><rect codeLine="9" fill="#F1F1F1" height="48" id="SQLModelAsset" rx="2.5" ry="2.5" style="stroke:#181818;stroke-width:0.5;" width="137" x="86" y="429.11"/><ellipse cx="101" cy="445.11" fill="#ADD1B2" rx="11" ry="11" style="stroke:#181818;stroke-width:1.0;"/><path d="M103.4731,451.2531 Q102.8921,451.5519 102.2529,451.7013 Q101.6138,451.8507 100.9082,451.8507 Q98.4014,451.8507 97.0815,450.1989 Q95.7617,448.547 95.7617,445.4259 Q95.7617,442.2965 97.0815,440.6447 Q98.4014,438.9928 100.9082,438.9928 Q101.6138,438.9928 102.2612,439.1422 Q102.9087,439.2916 103.4731,439.5905 L103.4731,442.3131 Q102.8423,441.7321 102.2488,441.4623 Q101.6553,441.1925 101.0244,441.1925 Q99.6797,441.1925 98.9949,442.2592 Q98.3101,443.3258 98.3101,445.4259 Q98.3101,447.5177 98.9949,448.5844 Q99.6797,449.651 101.0244,449.651 Q101.6553,449.651 102.2488,449.3812 Q102.8423,449.1115 103.4731,448.5304 Z " fill="#000000"/><text fill="#000000" font-family="sans-serif" font-size="14" lengthAdjust="spacing" textLength="105" x="115" y="450.401">SQLModelAsset</text><line style="stroke:#181818;stroke-width:0.5;" x1="87" x2="222" y1="461.11" y2="461.11"/><line style="stroke:#181818;stroke-width:0.5;" x1="87" x2="222" y1="469.11" y2="469.11"/></g><!--class DBDriver--><g id="elem_DBDriver"><rect codeLine="10" fill="#F1F1F1" height="229.3711" id="DBDriver" rx="2.5" ry="2.5" style="stroke:#181818;stroke-width:0.5;" width="437" x="258" y="338.42"/><ellipse cx="442.75" cy="354.42" fill="#B4A7E5" rx="11" ry="11" style="stroke:#181818;stroke-width:1.0;"/><path d="M439.1777,350.6851 L439.1777,348.5269 L446.5571,348.5269 L446.5571,350.6851 L444.0918,350.6851 L444.0918,358.7618 L446.5571,358.7618 L446.5571,360.92 L439.1777,360.92 L439.1777,358.7618 L441.6431,358.7618 L441.6431,350.6851 Z " fill="#000000"/><text fill="#000000" font-family="sans-serif" font-size="14" font-style="italic" lengthAdjust="spacing" textLength="59" x="463.25" y="359.711">DBDriver</text><line style="stroke:#181818;stroke-width:0.5;" x1="259" x2="694" y1="370.42" y2="370.42"/><line style="stroke:#181818;stroke-width:0.5;" x1="259" x2="694" y1="378.42" y2="378.42"/><ellipse cx="269" cy="392.1641" fill="#84BE84" rx="3" ry="3" style="stroke:#038048;stroke-width:1.0;"/><text fill="#000000" font-family="sans-serif" font-size="14" lengthAdjust="spacing" textLength="106" x="278" y="395.9552">Connect() error</text><ellipse cx="269" cy="408.6524" fill="#84BE84" rx="3" ry="3" style="stroke:#038048;stroke-width:1.0;"/><text fill="#000000" font-family="sans-serif" font-size="14" lengthAdjust="spacing" textLength="175" x="278" y="412.4434">Begin() (interface{}, error)</text><ellipse cx="269" cy="425.1407" fill="#84BE84" rx="3" ry="3" style="stroke:#038048;stroke-width:1.0;"/><text fill="#000000" font-family="sans-serif" font-size="14" lengthAdjust="spacing" textLength="191" x="278" y="428.9317">Commit(tx interface{}) error</text><ellipse cx="269" cy="441.629" fill="#84BE84" rx="3" ry="3" style="stroke:#038048;stroke-width:1.0;"/><text fill="#000000" font-family="sans-serif" font-size="14" lengthAdjust="spacing" textLength="194" x="278" y="445.42">Rallback(tx interface{}) error</text><ellipse cx="269" cy="458.1173" fill="#84BE84" rx="3" ry="3" style="stroke:#038048;stroke-width:1.0;"/><text fill="#000000" font-family="sans-serif" font-size="14" lengthAdjust="spacing" textLength="87" x="278" y="461.9083">Close() error</text><ellipse cx="269" cy="474.6055" fill="#84BE84" rx="3" ry="3" style="stroke:#038048;stroke-width:1.0;"/><text fill="#000000" font-family="sans-serif" font-size="14" lengthAdjust="spacing" textLength="241" x="278" y="478.3966">Exec(tx interface{}, sql string) error</text><ellipse cx="269" cy="491.0938" fill="#84BE84" rx="3" ry="3" style="stroke:#038048;stroke-width:1.0;"/><text fill="#000000" font-family="sans-serif" font-size="14" lengthAdjust="spacing" textLength="379" x="278" y="494.8848">GetListOfFields(tx interface{}, tableName string) []string</text><ellipse cx="269" cy="507.5821" fill="#84BE84" rx="3" ry="3" style="stroke:#038048;stroke-width:1.0;"/><text fill="#000000" font-family="sans-serif" font-size="14" lengthAdjust="spacing" textLength="378" x="278" y="511.3731">CheckTableExists(tx interface{}, tableName string) bool</text><ellipse cx="269" cy="524.0704" fill="#84BE84" rx="3" ry="3" style="stroke:#038048;stroke-width:1.0;"/><text fill="#000000" font-family="sans-serif" font-size="14" lengthAdjust="spacing" textLength="411" x="278" y="527.8614">CheckSchemaExists(tx interface{}, schemaName string) bool</text><ellipse cx="269" cy="540.5587" fill="#84BE84" rx="3" ry="3" style="stroke:#038048;stroke-width:1.0;"/><text fill="#000000" font-family="sans-serif" font-size="14" lengthAdjust="spacing" textLength="386" x="278" y="544.3497">MountSource(sourceProfile *configs.SourceProfile) error</text><ellipse cx="269" cy="557.047" fill="#84BE84" rx="3" ry="3" style="stroke:#038048;stroke-width:1.0;"/><text fill="#000000" font-family="sans-serif" font-size="14" lengthAdjust="spacing" textLength="405" x="278" y="560.838">UnMountSource(sourceProfile *configs.SourceProfile) error</text></g><!--class DuckDB--><g id="elem_DuckDB"><rect codeLine="24" fill="#F1F1F1" height="48" id="DuckDB" rx="2.5" ry="2.5" style="stroke:#181818;stroke-width:0.5;" width="84" x="612.5" y="636.04"/><ellipse cx="627.5" cy="652.04" fill="#ADD1B2" rx="11" ry="11" style="stroke:#181818;stroke-width:1.0;"/><path d="M629.9731,658.1831 Q629.3921,658.4819 628.7529,658.6313 Q628.1138,658.7807 627.4082,658.7807 Q624.9014,658.7807 623.5815,657.1289 Q622.2617,655.477 622.2617,652.3559 Q622.2617,649.2265 623.5815,647.5747 Q624.9014,645.9228 627.4082,645.9228 Q628.1138,645.9228 628.7612,646.0722 Q629.4087,646.2216 629.9731,646.5205 L629.9731,649.2431 Q629.3423,648.6621 628.7488,648.3923 Q628.1553,648.1225 627.5244,648.1225 Q626.1797,648.1225 625.4949,649.1892 Q624.8101,650.2558 624.8101,652.3559 Q624.8101,654.4477 625.4949,655.5144 Q626.1797,656.581 627.5244,656.581 Q628.1553,656.581 628.7488,656.3112 Q629.3423,656.0415 629.9731,655.4604 Z " fill="#000000"/><text fill="#000000" font-family="sans-serif" font-size="14" lengthAdjust="spacing" textLength="52" x="641.5" y="657.331">DuckDB</text><line style="stroke:#181818;stroke-width:0.5;" x1="613.5" x2="695.5" y1="668.04" y2="668.04"/><line style="stroke:#181818;stroke-width:0.5;" x1="613.5" x2="695.5" y1="676.04" y2="676.04"/></g><!--class PostgreSQL--><g id="elem_PostgreSQL"><rect codeLine="25" fill="#F1F1F1" height="48" id="PostgreSQL" rx="2.5" ry="2.5" style="stroke:#181818;stroke-width:0.5;" width="110" x="213.5" y="636.04"/><ellipse cx="228.5" cy="652.04" fill="#ADD1B2" rx="11" ry="11" style="stroke:#181818;stroke-width:1.0;"/><path d="M230.9731,658.1831 Q230.3921,658.4819 229.7529,658.6313 Q229.1138,658.7807 228.4082,658.7807 Q225.9014,658.7807 224.5815,657.1289 Q223.2617,655.477 223.2617,652.3559 Q223.2617,649.2265 224.5815,647.5747 Q225.9014,645.9228 228.4082,645.9228 Q229.1138,645.9228 229.7612,646.0722 Q230.4087,646.2216 230.9731,646.5205 L230.9731,649.2431 Q230.3423,648.6621 229.7488,648.3923 Q229.1553,648.1225 228.5244,648.1225 Q227.1797,648.1225 226.4949,649.1892 Q225.8101,650.2558 225.8101,652.3559 Q225.8101,654.4477 226.4949,655.5144 Q227.1797,656.581 228.5244,656.581 Q229.1553,656.581 229.7488,656.3112 Q230.3423,656.0415 230.9731,655.4604 Z " fill="#000000"/><text fill="#000000" font-family="sans-serif" font-size="14" lengthAdjust="spacing" textLength="78" x="242.5" y="657.331">PostgreSQL</text><line style="stroke:#181818;stroke-width:0.5;" x1="214.5" x2="322.5" y1="668.04" y2="668.04"/><line style="stroke:#181818;stroke-width:0.5;" x1="214.5" x2="322.5" y1="676.04" y2="676.04"/></g><!--class ClickHouse--><g id="elem_ClickHouse"><rect codeLine="26" fill="#F1F1F1" height="48" id="ClickHouse" rx="2.5" ry="2.5" style="stroke:#181818;stroke-width:0.5;" width="108" x="358.5" y="636.04"/><ellipse cx="373.5" cy="652.04" fill="#ADD1B2" rx="11" ry="11" style="stroke:#181818;stroke-width:1.0;"/><path d="M375.9731,658.1831 Q375.3921,658.4819 374.7529,658.6313 Q374.1138,658.7807 373.4082,658.7807 Q370.9014,658.7807 369.5815,657.1289 Q368.2617,655.477 368.2617,652.3559 Q368.2617,649.2265 369.5815,647.5747 Q370.9014,645.9228 373.4082,645.9228 Q374.1138,645.9228 374.7612,646.0722 Q375.4087,646.2216 375.9731,646.5205 L375.9731,649.2431 Q375.3423,648.6621 374.7488,648.3923 Q374.1553,648.1225 373.5244,648.1225 Q372.1797,648.1225 371.4949,649.1892 Q370.8101,650.2558 370.8101,652.3559 Q370.8101,654.4477 371.4949,655.5144 Q372.1797,656.581 373.5244,656.581 Q374.1553,656.581 374.7488,656.3112 Q375.3423,656.0415 375.9731,655.4604 Z " fill="#000000"/><text fill="#000000" font-family="sans-serif" font-size="14" lengthAdjust="spacing" textLength="76" x="387.5" y="657.331">ClickHouse</text><line style="stroke:#181818;stroke-width:0.5;" x1="359.5" x2="465.5" y1="668.04" y2="668.04"/><line style="stroke:#181818;stroke-width:0.5;" x1="359.5" x2="465.5" y1="676.04" y2="676.04"/></g><!--class MySQL--><g id="elem_MySQL"><rect codeLine="27" fill="#F1F1F1" height="48" id="MySQL" rx="2.5" ry="2.5" style="stroke:#181818;stroke-width:0.5;" width="77" x="501" y="636.04"/><ellipse cx="516" cy="652.04" fill="#ADD1B2" rx="11" ry="11" style="stroke:#181818;stroke-width:1.0;"/><path d="M518.4731,658.1831 Q517.8921,658.4819 517.2529,658.6313 Q516.6138,658.7807 515.9082,658.7807 Q513.4014,658.7807 512.0815,657.1289 Q510.7617,655.477 510.7617,652.3559 Q510.7617,649.2265 512.0815,647.5747 Q513.4014,645.9228 515.9082,645.9228 Q516.6138,645.9228 517.2612,646.0722 Q517.9087,646.2216 518.4731,646.5205 L518.4731,649.2431 Q517.8423,648.6621 517.2488,648.3923 Q516.6553,648.1225 516.0244,648.1225 Q514.6797,648.1225 513.9949,649.1892 Q513.3101,650.2558 513.3101,652.3559 Q513.3101,654.4477 513.9949,655.5144 Q514.6797,656.581 516.0244,656.581 Q516.6553,656.581 517.2488,656.3112 Q517.8423,656.0415 518.4731,655.4604 Z " fill="#000000"/><text fill="#000000" font-family="sans-serif" font-size="14" lengthAdjust="spacing" textLength="45" x="530" y="657.331">MySQL</text><line style="stroke:#181818;stroke-width:0.5;" x1="502" x2="577" y1="668.04" y2="668.04"/><line style="stroke:#181818;stroke-width:0.5;" x1="502" x2="577" y1="676.04" y2="676.04"/></g><!--class SQLModelDescriptor--><g id="elem_SQLModelDescriptor"><rect codeLine="28" fill="#F1F1F1" height="48" id="SQLModelDescriptor" rx="2.5" ry="2.5" style="stroke:#181818;stroke-width:0.5;" width="171" x="7" y="636.04"/><ellipse cx="22" cy="652.04" fill="#ADD1B2" rx="11" ry="11" style="stroke:#181818;stroke-width:1.0;"/><path d="M24.4731,658.1831 Q23.8921,658.4819 23.2529,658.6313 Q22.6138,658.7807 21.9082,658.7807 Q19.4014,658.7807 18.0815,657.1289 Q16.7617,655.477 16.7617,652.3559 Q16.7617,649.2265 18.0815,647.5747 Q19.4014,645.9228 21.9082,645.9228 Q22.6138,645.9228 23.2612,646.0722 Q23.9087,646.2216 24.4731,646.5205 L24.4731,649.2431 Q23.8423,648.6621 23.2488,648.3923 Q22.6553,648.1225 22.0244,648.1225 Q20.6797,648.1225 19.9949,649.1892 Q19.3101,650.2558 19.3101,652.3559 Q19.3101,654.4477 19.9949,655.5144 Q20.6797,656.581 22.0244,656.581 Q22.6553,656.581 23.2488,656.3112 Q23.8423,656.0415 24.4731,655.4604 Z " fill="#000000"/><text fill="#000000" font-family="sans-serif" font-size="14" lengthAdjust="spacing" textLength="139" x="36" y="657.331">SQLModelDescriptor</text><line style="stroke:#181818;stroke-width:0.5;" x1="8" x2="177" y1="668.04" y2="668.04"/><line style="stroke:#181818;stroke-width:0.5;" x1="8" x2="177" y1="676.04" y2="676.04"/></g><!--class DAG--><g id="elem_DAG"><rect codeLine="29" fill="#F1F1F1" height="97.4648" id="DAG" rx="2.5" ry="2.5" style="stroke:#181818;stroke-width:0.5;" width="180" x="794.5" y="7"/><ellipse cx="865.25" cy="23" fill="#B4A7E5" rx="11" ry="11" style="stroke:#181818;stroke-width:1.0;"/><path d="M861.6777,19.2651 L861.6777,17.1069 L869.0571,17.1069 L869.0571,19.2651 L866.5918,19.2651 L866.5918,27.3418 L869.0571,27.3418 L869.0571,29.5 L861.6777,29.5 L861.6777,27.3418 L864.1431,27.3418 L864.1431,19.2651 Z " fill="#000000"/><text fill="#000000" font-family="sans-serif" font-size="14" font-style="italic" lengthAdjust="spacing" textLength="30" x="885.75" y="28.291">DAG</text><line style="stroke:#181818;stroke-width:0.5;" x1="795.5" x2="973.5" y1="39" y2="39"/><line style="stroke:#181818;stroke-width:0.5;" x1="795.5" x2="973.5" y1="47" y2="47"/><ellipse cx="805.5" cy="60.7441" fill="#84BE84" rx="3" ry="3" style="stroke:#038048;stroke-width:1.0;"/><text fill="#000000" font-family="sans-serif" font-size="14" lengthAdjust="spacing" textLength="154" x="814.5" y="64.5352">Run() *sync.WaitGroup</text><ellipse cx="805.5" cy="77.2324" fill="#84BE84" rx="3" ry="3" style="stroke:#038048;stroke-width:1.0;"/><text fill="#000000" font-family="sans-serif" font-size="14" lengthAdjust="spacing" textLength="55" x="814.5" y="81.0234">Push(...)</text><ellipse cx="805.5" cy="93.7207" fill="#84BE84" rx="3" ry="3" style="stroke:#038048;stroke-width:1.0;"/><text fill="#000000" font-family="sans-serif" font-size="14" lengthAdjust="spacing" textLength="41" x="814.5" y="97.5117">Stop()</text></g><!--class Executor--><g id="elem_Executor"><rect codeLine="35" fill="#F1F1F1" height="64.4883" id="Executor" rx="2.5" ry="2.5" style="stroke:#181818;stroke-width:0.5;" width="324" x="731.5" y="627.79"/><ellipse cx="858.75" cy="643.79" fill="#B4A7E5" rx="11" ry="11" style="stroke:#181818;stroke-width:1.0;"/><path d="M855.1777,640.0551 L855.1777,637.8969 L862.5571,637.8969 L862.5571,640.0551 L860.0918,640.0551 L860.0918,648.1318 L862.5571,648.1318 L862.5571,650.29 L855.1777,650.29 L855.1777,648.1318 L857.6431,648.1318 L857.6431,640.0551 Z " fill="#000000"/><text fill="#000000" font-family="sans-serif" font-size="14" font-style="italic" lengthAdjust="spacing" textLength="61" x="879.25" y="649.081">Executor</text><line style="stroke:#181818;stroke-width:0.5;" x1="732.5" x2="1054.5" y1="659.79" y2="659.79"/><line style="stroke:#181818;stroke-width:0.5;" x1="732.5" x2="1054.5" y1="667.79" y2="667.79"/><ellipse cx="742.5" cy="681.5341" fill="#84BE84" rx="3" ry="3" style="stroke:#038048;stroke-width:1.0;"/><text fill="#000000" font-family="sans-serif" font-size="14" lengthAdjust="spacing" textLength="298" x="751.5" y="685.3252">func(input, modelProfile) (interface{}, error)</text></g><!--class Routine--><g id="elem_Routine"><rect codeLine="39" fill="#F1F1F1" height="48" id="Routine" rx="2.5" ry="2.5" style="stroke:#181818;stroke-width:0.5;" width="85" x="705" y="197.44"/><ellipse cx="720" cy="213.44" fill="#ADD1B2" rx="11" ry="11" style="stroke:#181818;stroke-width:1.0;"/><path d="M722.4731,219.5831 Q721.8921,219.8819 721.2529,220.0313 Q720.6138,220.1807 719.9082,220.1807 Q717.4014,220.1807 716.0815,218.5289 Q714.7617,216.877 714.7617,213.7559 Q714.7617,210.6265 716.0815,208.9747 Q717.4014,207.3228 719.9082,207.3228 Q720.6138,207.3228 721.2612,207.4722 Q721.9087,207.6216 722.4731,207.9205 L722.4731,210.6431 Q721.8423,210.0621 721.2488,209.7923 Q720.6553,209.5225 720.0244,209.5225 Q718.6797,209.5225 717.9949,210.5892 Q717.3101,211.6558 717.3101,213.7559 Q717.3101,215.8477 717.9949,216.9144 Q718.6797,217.981 720.0244,217.981 Q720.6553,217.981 721.2488,217.7112 Q721.8423,217.4415 722.4731,216.8604 Z " fill="#000000"/><text fill="#000000" font-family="sans-serif" font-size="14" lengthAdjust="spacing" textLength="53" x="734" y="218.731">Routine</text><line style="stroke:#181818;stroke-width:0.5;" x1="706" x2="789" y1="229.44" y2="229.44"/><line style="stroke:#181818;stroke-width:0.5;" x1="706" x2="789" y1="237.44" y2="237.44"/></g><!--class RawAsset--><g id="elem_RawAsset"><rect fill="#F1F1F1" height="48" id="RawAsset" rx="2.5" ry="2.5" style="stroke:#181818;stroke-width:0.5;" width="97" x="787" y="429.11"/><ellipse cx="802" cy="445.11" fill="#ADD1B2" rx="11" ry="11" style="stroke:#181818;stroke-width:1.0;"/><path d="M804.4731,451.2531 Q803.8921,451.5519 803.2529,451.7013 Q802.6138,451.8507 801.9082,451.8507 Q799.4014,451.8507 798.0815,450.1989 Q796.7617,448.547 796.7617,445.4259 Q796.7617,442.2965 798.0815,440.6447 Q799.4014,438.9928 801.9082,438.9928 Q802.6138,438.9928 803.2612,439.1422 Q803.9087,439.2916 804.4731,439.5905 L804.4731,442.3131 Q803.8423,441.7321 803.2488,441.4623 Q802.6553,441.1925 802.0244,441.1925 Q800.6797,441.1925 799.9949,442.2592 Q799.3101,443.3258 799.3101,445.4259 Q799.3101,447.5177 799.9949,448.5844 Q800.6797,449.651 802.0244,449.651 Q802.6553,449.651 803.2488,449.3812 Q803.8423,449.1115 804.4731,448.5304 Z " fill="#000000"/><text fill="#000000" font-family="sans-serif" font-size="14" lengthAdjust="spacing" textLength="65" x="816" y="450.401">RawAsset</text><line style="stroke:#181818;stroke-width:0.5;" x1="788" x2="883" y1="461.11" y2="461.11"/><line style="stroke:#181818;stroke-width:0.5;" x1="788" x2="883" y1="469.11" y2="469.11"/></g><!--class ChannelDAG--><g id="elem_ChannelDAG"><rect fill="#F1F1F1" height="48" id="ChannelDAG" rx="2.5" ry="2.5" style="stroke:#181818;stroke-width:0.5;" width="119" x="825" y="197.44"/><ellipse cx="840" cy="213.44" fill="#ADD1B2" rx="11" ry="11" style="stroke:#181818;stroke-width:1.0;"/><path d="M842.4731,219.5831 Q841.8921,219.8819 841.2529,220.0313 Q840.6138,220.1807 839.9082,220.1807 Q837.4014,220.1807 836.0815,218.5289 Q834.7617,216.877 834.7617,213.7559 Q834.7617,210.6265 836.0815,208.9747 Q837.4014,207.3228 839.9082,207.3228 Q840.6138,207.3228 841.2612,207.4722 Q841.9087,207.6216 842.4731,207.9205 L842.4731,210.6431 Q841.8423,210.0621 841.2488,209.7923 Q840.6553,209.5225 840.0244,209.5225 Q838.6797,209.5225 837.9949,210.5892 Q837.3101,211.6558 837.3101,213.7559 Q837.3101,215.8477 837.9949,216.9144 Q838.6797,217.981 840.0244,217.981 Q840.6553,217.981 841.2488,217.7112 Q841.8423,217.4415 842.4731,216.8604 Z " fill="#000000"/><text fill="#000000" font-family="sans-serif" font-size="14" lengthAdjust="spacing" textLength="87" x="854" y="218.731">ChannelDAG</text><line style="stroke:#181818;stroke-width:0.5;" x1="826" x2="943" y1="229.44" y2="229.44"/><line style="stroke:#181818;stroke-width:0.5;" x1="826" x2="943" y1="237.44" y2="237.44"/></g><!--reverse link Asset to SQLModelAsset--><g id="link_Asset_SQLModelAsset"><path codeLine="41" d="M316.1626,287.2274 C284.3726,303.8674 267.77,315.52 240.5,338.42 C209.42,364.53 182.87,403.84 167.8,428.73 " fill="none" id="Asset-backto-SQLModelAsset" style="stroke:#181818;stroke-width:1.0;stroke-dasharray:7.0,7.0;"/><polygon fill="none" points="332.11,278.88,313.3801,281.9116,318.9451,292.5432,332.11,278.88" style="stroke:#181818;stroke-width:1.0;"/></g><!--reverse link Asset to RawAsset--><g id="link_Asset_RawAsset"><path codeLine="42" d="M621.5232,286.513 C657.6532,303.593 679.42,316.11 712.5,338.42 C752.04,365.08 791.4,404.24 814.58,428.94 " fill="none" id="Asset-backto-RawAsset" style="stroke:#181818;stroke-width:1.0;stroke-dasharray:7.0,7.0;"/><polygon fill="none" points="605.25,278.82,618.9589,291.9374,624.0876,281.0886,605.25,278.82" style="stroke:#181818;stroke-width:1.0;"/></g><!--link SQLModelAsset to DBDriver--><g id="link_SQLModelAsset_DBDriver"><path codeLine="43" d="M235.37,453.11 C246.9,453.11 240.44,453.11 251.97,453.11 " fill="none" id="SQLModelAsset-DBDriver" style="stroke:#181818;stroke-width:1.0;"/><polygon fill="none" points="223.37,453.11,229.37,457.11,235.37,453.11,229.37,449.11,223.37,453.11" style="stroke:#181818;stroke-width:1.0;"/><polygon fill="#181818" points="257.97,453.11,248.97,449.11,252.97,453.11,248.97,457.11,257.97,453.11" style="stroke:#181818;stroke-width:1.0;"/></g><!--link SQLModelAsset to SQLModelDescriptor--><g id="link_SQLModelAsset_SQLModelDescriptor"><path codeLine="44" d="M144.0337,488.7054 C132.1237,528.0554 113.2579,590.4372 101.2979,629.9572 " fill="none" id="SQLModelAsset-SQLModelDescriptor" style="stroke:#181818;stroke-width:1.0;"/><polygon fill="none" points="147.51,477.22,141.9434,481.804,144.0337,488.7054,149.6003,484.1215,147.51,477.22" style="stroke:#181818;stroke-width:1.0;"/><polygon fill="#181818" points="99.56,635.7,105.9954,628.2445,101.0083,630.9143,98.3384,625.9272,99.56,635.7" style="stroke:#181818;stroke-width:1.0;"/></g><!--link RawAsset to Executor--><g id="link_RawAsset_Executor"><path codeLine="45" d="M845.3084,488.7663 C855.7084,525.5063 871.1369,579.9965 882.8869,621.5365 " fill="none" id="RawAsset-Executor" style="stroke:#181818;stroke-width:1.0;"/><polygon fill="none" points="842.04,477.22,839.8254,484.0826,845.3084,488.7663,847.523,481.9037,842.04,477.22" style="stroke:#181818;stroke-width:1.0;"/><polygon fill="#181818" points="884.52,627.31,885.9194,617.5611,883.1591,622.4988,878.2214,619.7385,884.52,627.31" style="stroke:#181818;stroke-width:1.0;"/></g><!--reverse link DBDriver to DuckDB--><g id="link_DBDriver_DuckDB"><path codeLine="46" d="M587.454,581.8492 C609.804,607.5792 619.49,618.73 634.37,635.86 " fill="none" id="DBDriver-backto-DuckDB" style="stroke:#181818;stroke-width:1.0;stroke-dasharray:7.0,7.0;"/><polygon fill="none" points="575.65,568.26,582.9243,585.7838,591.9837,577.9145,575.65,568.26" style="stroke:#181818;stroke-width:1.0;"/></g><!--reverse link DBDriver to PostgreSQL--><g id="link_DBDriver_PostgreSQL"><path codeLine="47" d="M347.8167,580.8918 C321.6967,606.6218 309.41,618.73 292.02,635.86 " fill="none" id="DBDriver-backto-PostgreSQL" style="stroke:#181818;stroke-width:1.0;stroke-dasharray:7.0,7.0;"/><polygon fill="none" points="360.64,568.26,343.6061,576.6174,352.0273,585.1663,360.64,568.26" style="stroke:#181818;stroke-width:1.0;"/></g><!--reverse link DBDriver to ClickHouse--><g id="link_DBDriver_ClickHouse"><path codeLine="48" d="M435.4814,585.4408 C427.4414,611.1708 425.09,618.73 419.74,635.86 " fill="none" id="DBDriver-backto-ClickHouse" style="stroke:#181818;stroke-width:1.0;stroke-dasharray:7.0,7.0;"/><polygon fill="none" points="440.85,568.26,429.7545,583.6512,441.2083,587.2303,440.85,568.26" style="stroke:#181818;stroke-width:1.0;"/></g><!--reverse link DBDriver to MySQL--><g id="link_DBDriver_MySQL"><path codeLine="49" d="M516.8793,585.4653 C524.7893,611.1953 527.11,618.73 532.38,635.86 " fill="none" id="DBDriver-backto-MySQL" style="stroke:#181818;stroke-width:1.0;stroke-dasharray:7.0,7.0;"/><polygon fill="none" points="511.59,568.26,511.1442,587.2284,522.6144,583.7022,511.59,568.26" style="stroke:#181818;stroke-width:1.0;"/></g><!--reverse link DAG to ChannelDAG--><g id="link_DAG_ChannelDAG"><path codeLine="51" d="M884.5,122.53 C884.5,152.92 884.5,172.93 884.5,196.96 " fill="none" id="DAG-backto-ChannelDAG" style="stroke:#181818;stroke-width:1.0;stroke-dasharray:7.0,7.0;"/><polygon fill="none" points="884.5,104.53,878.5,122.53,890.5,122.53,884.5,104.53" style="stroke:#181818;stroke-width:1.0;"/></g><!--link Routine to ChannelDAG--><g id="link_Routine_ChannelDAG"><path codeLine="52" d="M796.31,221.44 C807.72,221.44 801.12,221.44 812.53,221.44 " fill="none" id="Routine-ChannelDAG" style="stroke:#181818;stroke-width:1.0;"/><polygon fill="#181818" points="790.31,221.44,799.31,225.44,795.31,221.44,799.31,217.44,790.31,221.44" style="stroke:#181818;stroke-width:1.0;"/><polygon fill="#181818" points="824.53,221.44,818.53,217.44,812.53,221.44,818.53,225.44,824.53,221.44" style="stroke:#181818;stroke-width:1.0;"/></g><!--link Asset to Routine--><g id="link_Asset_Routine"><path codeLine="53" d="M676.39,221.44 C687.84,221.44 681.28,221.44 692.73,221.44 " fill="none" id="Asset-Routine" style="stroke:#181818;stroke-width:1.0;"/><polygon fill="#181818" points="670.39,221.44,679.39,225.44,675.39,221.44,679.39,217.44,670.39,221.44" style="stroke:#181818;stroke-width:1.0;"/><polygon fill="none" points="704.73,221.44,698.73,217.44,692.73,221.44,698.73,225.44,704.73,221.44" style="stroke:#181818;stroke-width:1.0;"/></g><!--SRC=[dLFRRjim37sklaAFpisVKA2nstH0isN9YZqKVL1KsXOYYvukQugk_pxvxim9CDGlbaWUwf0y5Cg2JXW7UcCCMFfEgFzcjqVWpa8WLE4ipLdnPAmMAdqMRVpxnuG6WzkSWjQe9-HgjWBxMFXuOBa99lJfkSRMdXXVrINVLvQ3DpQc3q8YoOoXk-yFQtm1MJ4aNph6yJBMuZTeJ_fg5g5ImAs7LpoyPGcfKC55bX7ckR21FTAJcbhqbacvP_nmCI2IQ63mNDcoVuBdrFoIJJbze2_qGHZxBRaJ85_C26FPNaBPYWuvw5AK0J_yA2DkZpx9_w3tYB95xdW6ERi0DPNp77QDJjaTEiqXCDLlep4H4kYKeqf4QiBTqDmN-wW-Y-t67pj-Y9VDPOF6fXgy91f390K_tACpq1ZMRxspLKuCXcjHM9zs89-RLIlthIk5CZLlYeS_cR0hZQxmx3VEP44OXgLUTXQBO5BIwbFKQuAw563Y5A_tPKxpyj6kdhC2z7bunN6BpWe5X9p8d8Qk2FzSrrj9jkprZFKKW0ijqimkhhkz60LutvcETCchWBOaKhUzVR7BsGzWvEf7CN9LGnbPIPGnlxMod4JhyyUXURgGaFYYcYvHqXwmSLJK_m80]--></g></svg>