<?xml version="1.0" encoding="us-ascii" standalone="no"?><svg xmlns="http://www.w3.org/2000/svg" xmlns:xlink="http://www.w3.org/1999/xlink" contentStyleType="text/css" height="286px" preserveAspectRatio="none" style="width:743px;height:286px;background:#FFFFFF;" version="1.1" viewBox="0 0 743 286" width="743px" zoomAndPan="magnify"><defs/><g><!--cluster staging--><g id="cluster_staging"><path d="M19.5,7 L130.5,7 A12.5,12.5 0 0 1 143,19.5 L143,28.4883 L7,28.4883 L7,19.5 A12.5,12.5 0 0 1 19.5,7 " fill="#F1F1F1" style="stroke:#F1F1F1;stroke-width:1.0;"/><rect fill="none" height="273" rx="12.5" ry="12.5" style="stroke:#181818;stroke-width:0.5;" width="136" x="7" y="7"/><line style="stroke:#181818;stroke-width:0.5;" x1="7" x2="143" y1="28.4883" y2="28.4883"/><text fill="#000000" font-family="sans-serif" font-size="14" lengthAdjust="spacing" textLength="51" x="49.5" y="24.5352">staging</text></g><!--cluster dds--><g id="cluster_dds"><path d="M183.5,95 L508.5,95 A12.5,12.5 0 0 1 521,107.5 L521,116.4883 L171,116.4883 L171,107.5 A12.5,12.5 0 0 1 183.5,95 " fill="#F1F1F1" style="stroke:#F1F1F1;stroke-width:1.0;"/><rect fill="none" height="101" rx="12.5" ry="12.5" style="stroke:#181818;stroke-width:0.5;" width="350" x="171" y="95"/><line style="stroke:#181818;stroke-width:0.5;" x1="171" x2="521" y1="116.4883" y2="116.4883"/><text fill="#000000" font-family="sans-serif" font-size="14" lengthAdjust="spacing" textLength="25" x="333.5" y="112.5352">dds</text></g><!--cluster mart--><g id="cluster_mart"><path d="M561.5,95 L717.5,95 A12.5,12.5 0 0 1 730,107.5 L730,116.4883 L549,116.4883 L549,107.5 A12.5,12.5 0 0 1 561.5,95 " fill="#F1F1F1" style="stroke:#F1F1F1;stroke-width:1.0;"/><rect fill="none" height="101" rx="12.5" ry="12.5" style="stroke:#181818;stroke-width:0.5;" width="181" x="549" y="95"/><line style="stroke:#181818;stroke-width:0.5;" x1="549" x2="730" y1="116.4883" y2="116.4883"/><text fill="#000000" font-family="sans-serif" font-size="14" lengthAdjust="spacing" textLength="32" x="623.5" y="112.5352">mart</text></g><g id="staging.addresses"><rect fill="#F1F1F1" height="50.6211" rx="12.5" ry="12.5" style="stroke:#181818;stroke-width:0.5;" width="89" x="30.5" y="127.69"/><line style="stroke:#181818;stroke-width:0.5;" x1="30.5" x2="119.5" y1="154.1783" y2="154.1783"/><text fill="#000000" font-family="sans-serif" font-size="14" lengthAdjust="spacing" textLength="69" x="40.5" y="146.2252">addresses</text><text fill="#000000" font-family="sans-serif" font-size="12" lengthAdjust="spacing" textLength="29" x="35.5" y="170.7798">table</text></g><g id="staging.transactions"><rect fill="#F1F1F1" height="50.6211" rx="12.5" ry="12.5" style="stroke:#181818;stroke-width:0.5;" width="104" x="23" y="213.69"/><line style="stroke:#181818;stroke-width:0.5;" x1="23" x2="127" y1="240.1783" y2="240.1783"/><text fill="#000000" font-family="sans-serif" font-size="14" lengthAdjust="spacing" textLength="84" x="33" y="232.2252">transactions</text><text fill="#000000" font-family="sans-serif" font-size="12" lengthAdjust="spacing" textLength="29" x="28" y="256.7798">table</text></g><g id="staging.wallets"><rect fill="#F1F1F1" height="50.6211" rx="12.5" ry="12.5" style="stroke:#181818;stroke-width:0.5;" width="67" x="41.5" y="41.69"/><line style="stroke:#181818;stroke-width:0.5;" x1="41.5" x2="108.5" y1="68.1783" y2="68.1783"/><text fill="#000000" font-family="sans-serif" font-size="14" lengthAdjust="spacing" textLength="47" x="51.5" y="60.2252">wallets</text><text fill="#000000" font-family="sans-serif" font-size="12" lengthAdjust="spacing" textLength="29" x="46.5" y="84.7798">table</text></g><g id="dds.dim_addresses"><rect fill="#F1F1F1" height="50.6211" rx="12.5" ry="12.5" style="stroke:#181818;stroke-width:0.5;" width="122" x="187" y="129.69"/><line style="stroke:#181818;stroke-width:0.5;" x1="187" x2="309" y1="156.1783" y2="156.1783"/><text fill="#000000" font-family="sans-serif" font-size="14" lengthAdjust="spacing" textLength="102" x="197" y="148.2252">dim_addresses</text><text fill="#000000" font-family="sans-serif" font-size="12" lengthAdjust="spacing" textLength="29" x="192" y="172.7798">table</text></g><g id="dds.fact_transactions"><rect fill="#F1F1F1" height="50.6211" rx="12.5" ry="12.5" style="stroke:#181818;stroke-width:0.5;" width="136" x="369" y="129.69"/><line style="stroke:#181818;stroke-width:0.5;" x1="369" x2="505" y1="156.1783" y2="156.1783"/><text fill="#000000" font-family="sans-serif" font-size="14" lengthAdjust="spacing" textLength="116" x="379" y="148.2252">fact_transactions</text><text fill="#000000" font-family="sans-serif" font-size="12" lengthAdjust="spacing" textLength="67" x="374" y="172.7798">incremental</text></g><g id="mart.mart_wallet_report"><rect fill="#F1F1F1" height="50.6211" rx="12.5" ry="12.5" style="stroke:#181818;stroke-width:0.5;" width="149" x="565" y="129.69"/><line style="stroke:#181818;stroke-width:0.5;" x1="565" x2="714" y1="156.1783" y2="156.1783"/><text fill="#000000" font-family="sans-serif" font-size="14" lengthAdjust="spacing" textLength="129" x="575" y="148.2252">mart_wallet_report</text><text fill="#000000" font-family="sans-serif" font-size="12" lengthAdjust="spacing" textLength="25" x="570" y="172.7798">view</text></g><!--link addresses to dim_addresses--><g id="link_addresses_dim_addresses"><path d="M119.59,153.51 C139.98,153.75 158.5804,153.9722 180.7104,154.2222 " fill="none" id="addresses-to-dim_addresses" style="stroke:#181818;stroke-width:1.0;"/><polygon fill="#181818" points="186.71,154.29,177.7558,150.1886,181.7103,154.2335,177.6654,158.1881,186.71,154.29" style="stroke:#181818;stroke-width:1.0;"/></g><!--link transactions to fact_transactions--><g id="link_transactions_fact_transactions"><path d="M127.38,232.25 C174.92,225.47 247.32,213.77 309,198 C328.62,192.98 343.8884,188.3385 363.0084,181.8485 " fill="none" id="transactions-to-fact_transactions" style="stroke:#181818;stroke-width:1.0;"/><polygon fill="#181818" points="368.69,179.92,358.8819,179.0251,363.9553,181.5271,361.4533,186.6006,368.69,179.92" style="stroke:#181818;stroke-width:1.0;"/></g><!--link dim_addresses to fact_transactions--><g id="link_dim_addresses_fact_transactions"><path d="M309.46,155 C328.34,155 343.29,155 362.63,155 " fill="none" id="dim_addresses-to-fact_transactions" style="stroke:#181818;stroke-width:1.0;"/><polygon fill="#181818" points="368.63,155,359.63,151,363.63,155,359.63,159,368.63,155" style="stroke:#181818;stroke-width:1.0;"/></g><!--link fact_transactions to mart_wallet_report--><g id="link_fact_transactions_mart_wallet_report"><path d="M505.32,155 C524.43,155 539.34,155 558.81,155 " fill="none" id="fact_transactions-to-mart_wallet_report" style="stroke:#181818;stroke-width:1.0;"/><polygon fill="#181818" points="564.81,155,555.81,151,559.81,155,555.81,159,564.81,155" style="stroke:#181818;stroke-width:1.0;"/></g><!--SRC=[ZP0z3eCm34RtdC8N80TWw5KYbnXgAOJAiSfGzUuDFq95eGWF7kndVKyEr2he0CBTGy6pKACyH9CKbI3tZcC7RmC_jTjPz5ue9KerADu3dQ0g61FE0HVe4KCWtS3FwkHzElJ9S-kvTnTy9hJD7culnB4HwYagXYsjHz73k6bXf-OMJoVq74HhU36Do_d-FLLrAnJDqMTMi10qnVafMKmp_KVQc2y0]--></g></svg>